<?xml version="1.0" standalone="no"?>
<!DOCTYPE svg PUBLIC "-//W3C//DTD SVG 20010904//EN"
 "http://www.w3.org/TR/2001/REC-SVG-20010904/DTD/svg10.dtd">
<svg version="1.0" xmlns="http://www.w3.org/2000/svg"
 width="1500.000000pt" height="1500.000000pt" viewBox="0 0 1500.000000 1500.000000"
 preserveAspectRatio="xMidYMid meet">

<g transform="translate(0.000000,1500.000000) scale(0.100000,-0.100000)"
fill="#000000" stroke="none">
<path d="M0 7500 l0 -7500 7500 0 7500 0 0 7500 0 7500 -7500 0 -7500 0 0
-7500z m7706 4838 c-8 -62 -10 -64 -56 -73 -34 -6 -36 -5 -58 40 -12 25 -22
49 -22 54 0 11 64 29 109 30 l34 1 -7 -52z m214 32 c8 -5 20 -8 25 -9 13 -1
12 -9 -5 -53 -12 -33 -17 -37 -47 -36 -18 1 -37 6 -42 12 -12 15 -21 97 -10
90 5 -3 9 0 9 6 0 11 40 5 70 -10z m262 -137 c23 -23 40 -44 37 -46 -2 -2 -31
-13 -63 -25 l-59 -23 -29 28 c-15 15 -28 30 -28 34 0 4 10 30 22 57 l22 51 28
-17 c16 -9 47 -36 70 -59z m-358 -114 c42 -12 136 -97 136 -124 0 -21 -13 -19
-36 6 -30 34 -78 49 -156 49 -75 0 -154 -27 -165 -56 -7 -19 -23 -18 -23 2 0
25 82 104 125 119 49 17 69 18 119 4z m-511 -71 c12 -7 25 -12 29 -13 3 0 10
-4 15 -9 5 -6 2 -6 -6 -1 -11 6 -13 4 -8 -9 5 -11 3 -15 -5 -10 -7 5 -9 2 -5
-8 3 -9 3 -19 -1 -23 -4 -4 -8 -11 -8 -16 -1 -5 -2 -12 -3 -16 -1 -10 -51 -10
-51 0 0 4 -11 5 -25 1 -49 -12 -53 73 -5 114 11 10 11 11 1 6 -9 -4 -12 -3 -7
4 7 12 35 5 79 -20z m1002 -4 c9 -19 18 -48 20 -64 3 -25 0 -28 -33 -33 -20
-3 -46 -9 -58 -12 -18 -6 -24 1 -40 42 -10 26 -21 52 -23 57 -2 5 2 5 9 1 7
-4 15 -3 19 4 4 6 19 12 34 13 15 1 27 6 27 11 0 4 5 5 10 2 6 -3 10 -1 10 4
0 19 7 12 25 -25z m-515 -98 c6 -8 10 -25 8 -38 -4 -30 -56 -38 -75 -12 -17
23 -16 29 3 48 19 20 48 20 64 2z m-138 -53 c34 -37 72 -99 89 -145 7 -21 16
-38 19 -38 3 0 15 26 27 58 13 31 43 80 67 107 38 43 47 48 63 39 27 -16 27
-39 0 -66 -38 -37 -103 -120 -124 -157 -10 -19 -24 -36 -30 -38 -6 -2 -34 29
-62 69 -27 40 -66 90 -86 112 -38 41 -42 55 -23 74 18 18 32 15 60 -15z m-379
-93 c5 -4 5 -29 2 -54 l-7 -47 -42 6 c-76 12 -76 12 -76 67 l0 50 58 -7 c31
-4 61 -10 65 -15z m780 -44 c19 -29 1 -52 -70 -86 -39 -19 -87 -48 -107 -63
-40 -31 -40 -31 -25 33 13 56 40 86 104 116 49 23 82 23 98 0z m-485 -15 c46
-24 77 -58 86 -93 8 -35 -5 -36 -38 -3 -14 14 -28 25 -31 25 -8 -2 -99 32
-108 41 -5 4 -6 16 -2 28 8 27 43 27 93 2z m-1186 -87 c23 -20 44 -40 46 -44
1 -4 -17 -13 -41 -19 -42 -12 -47 -11 -117 24 -39 20 -70 38 -67 41 7 8 91 32
114 33 11 1 41 -15 65 -35z m2839 21 c8 3 32 -1 53 -8 l39 -13 -39 -19 c-21
-10 -41 -17 -43 -16 -2 2 -7 -1 -10 -6 -3 -5 -18 -14 -33 -20 -21 -10 -27 -9
-32 3 -3 8 -11 14 -18 14 -9 0 -8 -3 2 -10 8 -5 10 -10 4 -10 -13 0 -52 29
-39 30 6 0 28 16 49 36 25 23 41 32 46 24 4 -6 13 -8 21 -5z m-266 -5 c-3 -5
-14 -10 -23 -10 -15 0 -15 2 -2 10 20 13 33 13 25 0z m-40 -16 c14 -6 14 -8
-2 -18 -10 -7 -36 -13 -58 -14 l-40 -1 40 19 c47 23 40 21 60 14z m-1706 -81
c29 7 51 -11 51 -43 0 -36 -10 -61 -20 -55 -5 3 -22 7 -40 9 -38 4 -38 4 -40
46 -3 59 -2 64 15 50 8 -7 23 -10 34 -7z m1161 -38 c0 -40 -4 -55 -14 -55 -7
0 -34 -3 -60 -6 l-47 -7 3 54 c3 53 4 54 38 60 81 14 80 15 80 -46z m1118 12
c12 -13 19 -27 15 -31 -5 -4 -1 -6 7 -4 8 2 14 -3 12 -10 -1 -8 2 -11 7 -8 5
3 14 -1 21 -9 14 -17 14 -17 -60 -34 -25 -5 -57 -9 -72 -7 -15 2 -25 -1 -22
-5 3 -5 -2 -9 -11 -9 -11 0 -15 5 -11 16 3 8 2 13 -3 10 -5 -3 -21 6 -35 21
-24 23 -25 28 -11 36 9 5 25 7 36 4 10 -3 17 -1 14 3 -7 11 30 32 39 23 3 -3
6 -1 6 5 0 9 12 15 41 21 3 0 15 -9 27 -22z m-1700 -69 c30 -30 0 -75 -42 -64
-29 7 -40 31 -26 57 12 21 50 25 68 7z m1062 9 c0 -1 -72 -74 -161 -162 l-160
-160 25 67 c13 37 29 75 35 85 12 23 76 83 119 113 41 28 142 69 142 57z
m-2125 -23 c6 0 16 -2 23 -2 7 -1 10 -6 7 -12 -3 -5 1 -10 10 -10 10 0 14 -5
9 -12 -5 -10 -4 -10 7 0 11 10 17 7 36 -14 13 -15 23 -24 23 -21 0 4 11 -3 25
-15 13 -11 21 -26 18 -31 -4 -6 0 -8 10 -4 10 3 17 2 17 -4 0 -6 7 -17 15 -25
8 -9 15 -21 15 -27 0 -7 -4 -6 -10 3 -11 17 -13 10 -4 -14 3 -9 10 -14 14 -11
5 3 7 -3 5 -12 -1 -10 5 -27 14 -38 8 -11 -1 -5 -21 14 -21 19 -35 38 -32 42
3 5 -2 6 -10 3 -15 -6 -21 6 -17 29 1 5 -2 6 -7 3 -5 -3 -15 3 -24 12 -9 9
-36 36 -61 59 -25 23 -43 44 -40 46 2 3 -4 8 -14 11 -10 3 -24 15 -31 27 -11
17 -11 20 0 13 7 -5 18 -9 23 -10z m-338 -28 c-8 -8 -17 -13 -20 -10 -3 3 -8
-3 -11 -14 -4 -11 -14 -23 -22 -26 -8 -3 -13 -10 -9 -15 3 -5 -4 -12 -15 -16
-11 -3 -25 -15 -30 -26 -6 -10 -18 -19 -26 -19 -11 0 -14 -6 -10 -16 4 -12 2
-15 -9 -10 -8 3 -14 0 -12 -5 1 -6 -8 -13 -21 -15 -23 -4 -23 -4 -5 20 10 13
22 21 27 18 5 -3 6 0 1 7 -9 16 25 49 48 45 13 -2 15 1 9 9 -6 8 3 22 26 42
20 17 33 24 28 18 -4 -7 -3 -13 2 -13 5 0 12 9 15 21 3 12 10 18 16 15 5 -4
13 -1 16 5 4 5 9 8 12 5 3 -3 -1 -12 -10 -20z m2799 -13 c13 -8 24 -19 24 -24
0 -5 6 -9 13 -9 18 0 49 -34 40 -43 -3 -4 1 -7 10 -7 10 0 14 -6 11 -13 -3 -8
3 -20 13 -28 16 -13 17 -12 4 4 -7 9 -11 17 -8 17 3 0 16 -14 28 -32 13 -17
18 -28 11 -24 -8 4 -12 1 -12 -11 -1 -17 -2 -16 -15 2 -8 11 -20 27 -27 35 -7
8 -12 18 -10 22 1 5 -1 7 -5 6 -12 -4 -54 28 -46 35 3 4 -1 7 -10 7 -15 0 -22
11 -18 33 0 4 -3 6 -7 5 -4 -2 -23 10 -42 26 l-35 29 29 -7 c15 -4 39 -14 52
-23z m-1530 -20 c16 -21 45 -71 65 -112 36 -73 36 -73 53 -50 9 13 16 28 16
33 0 16 43 96 52 96 4 0 8 7 8 15 0 9 7 18 15 21 8 4 12 11 8 18 -4 6 2 4 12
-4 10 -8 16 -10 12 -3 -4 6 -3 14 3 18 6 3 13 -1 16 -9 4 -10 -10 -34 -37 -65
-24 -26 -60 -74 -79 -104 -19 -31 -38 -56 -42 -57 -4 0 -16 17 -27 38 -11 20
-29 47 -40 59 -12 12 -21 27 -21 33 0 5 -4 10 -9 10 -5 0 -24 18 -42 41 -26
33 -29 43 -18 50 21 13 24 12 55 -28z m1472 -156 l162 -162 -165 -165 -166
-164 -165 165 -166 166 163 161 c89 89 165 162 168 162 3 0 79 -73 169 -163z
m-1880 97 c20 -4 22 -10 22 -60 0 -48 -2 -55 -17 -50 -10 2 -37 8 -60 11 l-43
7 0 54 0 55 38 -6 c20 -3 47 -8 60 -11z m1122 -38 l0 -54 -42 -7 c-24 -3 -51
-9 -60 -11 -16 -5 -18 2 -18 50 0 50 2 56 23 60 102 22 97 24 97 -38z m-2395
26 c44 -10 80 -22 80 -28 0 -8 -45 -134 -50 -142 -2 -1 -43 2 -93 9 l-91 11 6
32 c10 55 44 136 56 136 7 0 48 -9 92 -18z m2089 -11 c10 -11 15 -27 12 -38
-6 -19 -131 -137 -178 -167 -59 -39 -35 25 58 151 57 77 78 87 108 54z m-564
-6 c12 7 130 -156 130 -179 0 -13 -40 15 -100 71 -76 70 -85 86 -63 109 11 11
18 13 21 5 2 -6 8 -9 12 -6z m-1306 -79 c-10 -8 -21 -12 -24 -9 -3 2 4 11 14
19 11 7 22 12 25 9 2 -3 -4 -12 -15 -19z m3156 -11 c14 -19 14 -19 -2 -6 -10
7 -18 18 -18 24 0 6 1 8 3 6 1 -2 9 -13 17 -24z m-2762 -47 c34 -34 -6 -90
-48 -68 -35 19 -20 80 20 80 9 0 21 -5 28 -12z m-100 -108 c22 -33 46 -76 52
-95 6 -19 15 -35 18 -35 4 0 15 23 25 50 20 55 94 153 119 158 9 2 21 -6 27
-16 9 -17 2 -31 -49 -91 -32 -39 -71 -91 -85 -116 -15 -25 -32 -45 -39 -45 -7
0 -21 19 -33 43 -11 23 -48 75 -82 114 -33 40 -61 77 -61 82 0 17 33 30 51 20
10 -5 35 -36 57 -69z m760 34 c2 -1 5 -19 7 -38 3 -28 0 -36 -13 -37 -14 0
-13 -2 3 -9 18 -8 17 -9 -6 -9 -14 -1 -40 4 -56 10 -27 9 -30 15 -30 47 0 20
5 40 11 44 10 7 75 1 84 -8z m1109 -6 c-3 -8 -6 -5 -6 6 -1 11 2 17 5 13 3 -3
4 -12 1 -19z m-10 -7 c19 -25 16 -71 -4 -72 -10 0 -32 -2 -49 -4 -31 -4 -32
-3 -36 35 -2 21 -2 43 0 49 5 16 76 10 89 -8z m-2486 -50 c-10 -6 -1 -8 26 -4
65 9 93 -2 93 -35 0 -56 -9 -70 -45 -69 -19 1 -31 5 -28 11 4 5 -4 6 -18 3
-50 -13 -66 0 -67 52 -1 44 0 47 26 49 20 1 23 -1 13 -7z m2849 -567 c-100
-99 -191 -185 -201 -192 -18 -13 -19 -2 -19 380 l0 393 201 -202 202 -201
-183 -178z m-1685 530 c-1 -15 -9 -31 -16 -36 -11 -8 -11 -9 2 -5 15 5 16 -13
15 -178 -1 -119 -4 -181 -11 -177 -5 3 -5 -1 1 -9 8 -9 12 -62 11 -150 0 -135
-1 -136 -23 -136 -13 0 -25 5 -28 13 -3 8 0 11 8 8 8 -3 17 0 22 7 5 8 3 10
-5 4 -8 -4 -26 2 -44 16 l-32 22 20 -24 20 -24 -23 19 c-13 12 -20 26 -17 35
3 8 3 12 -1 8 -4 -4 -16 1 -27 10 -15 13 -18 14 -12 3 6 -11 5 -12 -4 -4 -7 6
-14 20 -15 30 -2 11 -9 19 -15 19 -7 0 -24 14 -38 30 -14 17 -22 23 -18 15 5
-8 -6 -2 -23 14 -18 17 -32 32 -32 34 0 3 8 -2 18 -11 15 -14 19 -14 19 -3 0
8 -3 14 -6 13 -10 -2 -69 32 -77 44 -5 8 -3 9 6 4 9 -5 11 -4 6 4 -4 6 -11 9
-15 6 -5 -2 -18 6 -30 19 l-21 23 21 26 c11 15 25 25 30 21 5 -3 8 -1 7 4 -4
13 132 147 150 147 10 1 16 7 14 14 -4 18 130 152 145 146 7 -2 12 -1 12 3 -2
11 1 22 5 22 2 0 3 -12 1 -26z m763 14 c34 -34 -6 -90 -48 -68 -11 6 -20 12
-20 15 0 2 -3 10 -6 18 -12 32 48 61 74 35z m1625 -50 c4 -29 9 -192 13 -363
7 -304 7 -310 -12 -295 -10 8 -102 89 -202 179 l-184 164 184 184 c100 100
186 183 189 183 3 0 9 -24 12 -52z m-3214 -34 c42 -42 75 -80 74 -85 -2 -5 1
-8 5 -6 4 1 51 -41 104 -94 l97 -96 -33 -32 c-18 -17 -35 -29 -38 -26 -3 4 -9
1 -14 -6 -5 -8 -3 -10 7 -4 8 5 3 -4 -10 -18 -13 -15 -27 -24 -31 -22 -4 2
-16 -3 -26 -11 -10 -9 -12 -12 -4 -8 8 4 3 -6 -12 -22 -27 -28 -27 -28 -50 -8
-13 11 -18 12 -10 3 6 -9 8 -20 4 -24 -4 -5 0 -5 8 -1 8 4 -2 -9 -23 -29 -21
-20 -43 -33 -49 -29 -8 5 -9 1 -4 -12 4 -10 4 -15 0 -12 -4 4 -29 -16 -56 -45
l-49 -52 5 160 c3 88 6 162 6 165 1 3 1 71 2 153 0 81 4 150 9 152 4 3 6 12 2
20 -3 9 1 23 8 32 10 12 10 15 2 9 -8 -4 -13 -1 -13 8 0 9 3 16 6 16 4 0 41
-34 83 -76z m1445 40 c30 -30 76 -102 95 -150 l19 -49 25 57 c30 68 85 145
110 153 19 7 47 -10 47 -28 0 -5 -25 -39 -56 -76 -31 -36 -68 -87 -83 -113
-14 -26 -33 -48 -41 -47 -8 0 -34 30 -58 67 -24 37 -61 87 -83 110 -41 46 -46
61 -27 80 16 16 33 15 52 -4z m714 -130 c2 -22 -2 -34 -10 -34 -9 0 -8 -3 2
-10 13 -9 13 -10 0 -11 -46 -4 -60 -7 -73 -12 -16 -6 -27 18 -27 59 0 30 18
42 64 42 41 0 42 -1 44 -34z m-815 -8 c61 -25 167 -163 167 -216 0 -37 -29
-21 -55 30 -30 59 -48 72 -138 100 -63 19 -67 23 -67 50 0 46 36 60 93 36z
m509 -3 c21 -19 23 -46 6 -61 -7 -5 -39 -17 -70 -26 -69 -20 -108 -51 -133
-105 -21 -48 -45 -54 -45 -13 0 51 102 180 165 208 40 18 55 17 77 -3z m-2119
-28 l37 0 0 -59 0 -58 -47 6 c-122 17 -113 12 -113 72 l0 54 43 -7 c23 -4 59
-8 80 -8z m1320 -161 c13 -4 17 -16 17 -55 0 -54 2 -53 -74 -43 l-46 7 0 54 0
55 43 -7 c23 -3 50 -9 60 -11z m354 -43 c33 -27 45 -67 34 -107 -14 -49 -47
-73 -102 -74 -50 0 -79 21 -98 73 -12 32 -1 70 31 105 28 29 102 30 135 3z
m433 -17 c24 -20 30 -33 26 -50 -3 -12 -1 -24 5 -26 13 -4 -34 -63 -63 -79
-25 -14 -83 5 -103 34 -8 12 -15 39 -15 60 0 80 85 115 150 61z m1670 -54 c0
-54 0 -54 -103 -66 l-57 -7 0 55 0 55 73 9 c39 5 75 8 80 6 4 -2 7 -25 7 -52z
m-2977 -156 l164 -162 -121 -119 c-66 -65 -144 -139 -171 -165 l-50 -47 -180
160 c-99 88 -181 163 -183 167 -3 10 358 334 369 330 4 -2 81 -76 172 -164z
m1637 2 l0 -54 -42 -7 c-24 -3 -51 -9 -60 -11 -16 -5 -18 2 -18 50 l0 55 38 6
c20 4 42 8 47 10 30 10 35 3 35 -49z m-2536 -38 c-5 -8 -2 -9 11 -5 9 4 38 5
64 1 l46 -6 0 -44 c1 -24 -2 -38 -7 -31 -5 8 -8 7 -8 -5 0 -11 -7 -18 -17 -18
-15 0 -16 2 -4 9 10 6 0 8 -27 4 -28 -4 -42 -2 -42 6 0 6 -7 11 -16 11 -12 0
-15 9 -13 38 3 38 7 52 15 52 3 0 2 -5 -2 -12z m3874 -40 l-3 -52 -72 -11 -73
-11 0 57 0 58 48 4 c114 9 103 14 100 -45z m-720 10 c34 -34 -6 -90 -48 -68
-35 19 -20 80 20 80 9 0 21 -5 28 -12z m-1967 -20 c11 -21 11 -22 -4 -9 -10 7
-17 17 -17 22 0 15 9 10 21 -13z m1832 -57 c15 -16 27 -36 27 -45 0 -9 6 -19
14 -22 8 -3 19 -19 25 -35 14 -41 -6 -48 -24 -7 -8 18 -14 29 -15 25 0 -4 -15
9 -32 30 -18 21 -36 40 -40 41 -13 6 -9 42 5 42 6 0 24 -13 40 -29z m267 16
c0 -24 -32 -59 -48 -52 -9 3 -13 3 -9 -1 4 -4 2 -13 -4 -21 -6 -7 -8 -13 -5
-13 4 0 0 -8 -10 -17 -18 -18 -58 -27 -48 -11 3 4 10 5 16 2 7 -5 9 -1 5 9 -4
11 5 30 25 52 26 30 33 33 47 23 13 -10 14 -10 4 1 -6 7 -9 20 -6 27 7 18 33
18 33 1z m-1850 -124 l0 -55 -30 6 c-16 3 -43 9 -60 12 -29 5 -30 8 -30 58 l0
53 60 -10 60 -10 0 -54z m1088 36 c3 -40 -5 -65 -21 -67 -55 -7 -77 -8 -77 -3
-1 3 -3 24 -6 46 -4 29 -2 36 5 25 9 -13 11 -13 11 2 0 12 9 16 36 16 19 0 38
3 41 6 9 8 9 9 11 -25z m-1339 -194 c-1 -150 -9 -190 -31 -151 -17 31 -59 66
-86 72 -15 3 -33 7 -39 10 -7 2 -13 -1 -13 -7 0 -6 -4 -7 -10 -4 -5 3 -20 -3
-32 -14 -12 -12 -26 -21 -30 -21 -5 0 -6 -5 -2 -12 5 -8 2 -9 -10 -5 -13 5
-15 3 -7 -12 6 -10 8 -21 5 -23 -21 -21 -7 -78 25 -104 8 -6 12 -15 8 -20 -3
-5 5 -10 16 -11 12 -1 41 -5 64 -7 35 -5 47 -2 67 17 28 26 50 73 47 98 -1 9
5 19 13 22 13 5 15 -21 15 -184 0 -120 -4 -187 -10 -184 -5 4 -7 10 -5 14 3 4
-5 13 -17 21 -21 12 -21 12 -7 -6 14 -17 13 -17 -10 1 -64 51 -109 99 -103
109 3 6 3 8 -2 4 -7 -7 -17 1 -44 35 -12 15 -12 17 2 12 8 -4 18 -2 21 3 3 5
-7 8 -22 6 -28 -3 -55 13 -46 27 3 5 -4 9 -15 9 -12 0 -21 5 -21 11 0 5 5 7
12 3 7 -4 8 -3 4 4 -4 6 -14 8 -23 5 -13 -5 -15 -2 -10 11 4 9 3 15 -3 11 -12
-7 -61 47 -56 62 3 7 0 15 -6 19 -6 4 -8 3 -4 -4 3 -6 2 -13 -3 -16 -5 -4 -12
-2 -15 3 -8 12 21 34 34 26 6 -4 9 -1 8 7 -2 7 3 12 10 10 8 -1 11 1 8 6 -2 4
34 46 81 92 47 47 82 78 77 70 -7 -13 -6 -13 9 -1 10 8 15 16 13 19 -7 7 57
57 69 54 5 -2 7 0 2 4 -9 9 53 75 64 68 5 -2 8 -74 8 -159z m1514 147 c10 -10
14 -22 10 -26 -5 -4 -3 -7 2 -6 23 5 35 -1 35 -17 0 -9 3 -13 7 -10 7 8 39
-34 35 -45 -1 -5 1 -7 6 -7 23 4 34 -3 28 -17 -3 -8 -2 -12 4 -9 12 7 141
-116 134 -127 -3 -5 0 -7 8 -6 7 2 12 -3 10 -10 -1 -6 4 -11 10 -10 7 2 12 -3
10 -10 -1 -6 4 -11 10 -10 7 2 12 -3 10 -10 -1 -6 4 -11 10 -10 7 2 13 -4 13
-12 0 -10 -9 -14 -25 -13 -14 1 -20 -1 -13 -3 10 -4 10 -10 0 -25 -6 -10 -15
-19 -20 -19 -4 0 -5 5 -1 12 4 7 3 8 -4 4 -6 -4 -9 -12 -6 -19 3 -8 -9 -19
-28 -28 -18 -8 -33 -21 -33 -29 0 -8 -10 -19 -23 -26 -12 -6 -26 -15 -30 -19
-4 -5 0 -4 8 0 10 6 8 1 -4 -13 -10 -12 -23 -19 -29 -15 -6 3 -7 1 -3 -5 4 -7
-6 -19 -23 -30 -17 -10 -28 -22 -24 -25 3 -4 1 -7 -5 -7 -6 0 -26 -16 -44 -35
-17 -20 -37 -33 -44 -31 -8 3 -11 0 -8 -8 3 -7 -1 -18 -9 -24 -12 -10 -14 35
-15 305 0 174 4 327 9 340 4 12 5 23 0 23 -6 0 -7 31 -2 48 3 7 20 0 34 -16z
m910 -278 c4 -153 6 -313 5 -355 l-3 -76 -204 182 c-112 100 -203 185 -202
189 2 13 376 345 386 342 6 -2 13 -111 18 -282z m265 234 c-3 -58 6 -52 -110
-72 l-38 -7 0 55 0 54 53 10 c100 18 98 19 95 -40z m-3578 6 c0 -7 5 -16 12
-20 7 -5 8 -3 3 5 -4 7 4 5 19 -4 14 -9 23 -22 19 -28 -3 -5 -2 -7 4 -4 9 6
47 -30 48 -45 0 -5 5 -8 10 -9 23 -2 46 -21 41 -34 -3 -9 0 -12 8 -9 8 3 20
-4 28 -15 8 -12 17 -19 20 -16 3 3 13 -9 21 -27 9 -18 17 -27 17 -20 0 10 4
10 16 -2 8 -9 13 -20 9 -26 -3 -5 0 -7 8 -4 9 3 22 -4 31 -18 9 -12 16 -19 16
-15 0 5 5 5 11 1 7 -4 8 -9 0 -17 -7 -7 -16 -6 -28 4 -16 13 -17 12 -4 -4 12
-15 11 -20 -4 -37 -19 -21 -41 -28 -29 -8 4 7 3 8 -5 4 -6 -4 -9 -11 -6 -16 5
-8 -12 -24 -61 -58 -11 -7 -12 -10 -4 -7 8 4 6 -1 -4 -9 -23 -19 -40 -21 -30
-4 4 7 3 8 -5 4 -6 -4 -9 -11 -6 -16 8 -13 -115 -131 -127 -123 -6 3 -8 2 -5
-4 4 -6 -6 -21 -21 -34 -20 -18 -23 -19 -12 -4 12 16 9 15 -12 -3 -14 -13 -28
-19 -32 -14 -3 5 -3 83 1 173 3 90 6 230 7 311 0 80 4 150 8 154 4 4 3 13 -4
21 -10 12 -7 12 15 2 15 -7 27 -18 27 -25z m2880 26 c0 -5 -4 -10 -10 -10 -5
0 -10 5 -10 10 0 6 5 10 10 10 6 0 10 -4 10 -10z m-46 -71 c-7 -13 -24 7 -24
29 0 10 4 10 16 -2 8 -9 12 -21 8 -27z m-1740 -75 l46 -7 0 -55 0 -55 -37 7
c-21 3 -48 6 -60 6 -21 0 -23 5 -23 55 0 60 -2 59 74 49z m1136 -38 c0 -47 -4
-51 -68 -66 -34 -8 -34 -8 -30 25 2 19 0 31 -4 29 -4 -3 -8 2 -8 10 0 18 29
35 47 29 7 -2 20 0 30 6 29 17 33 13 33 -33z m-2427 -45 c14 -1 17 -11 17 -57
0 -53 -1 -56 -22 -51 -13 3 -44 9 -70 12 l-48 7 0 47 c0 26 2 50 5 53 3 3 26
1 53 -3 26 -4 55 -8 65 -8z m3767 -30 c0 -20 -4 -41 -8 -47 -9 -14 -60 -24
-94 -17 -22 4 -26 10 -25 32 1 16 9 28 22 33 18 5 17 6 -5 8 -19 1 -14 5 20
14 77 21 90 17 90 -23z m-1995 -219 c-1 -161 -2 -180 -21 -209 -11 -18 -23
-31 -26 -28 -2 3 -5 -1 -5 -7 0 -7 -14 -37 -30 -66 -25 -44 -32 -50 -38 -35
-10 25 -19 81 -19 125 0 21 -3 33 -7 27 -6 -10 -9 3 -25 89 -3 12 0 22 6 22 5
0 10 5 10 11 0 7 8 18 18 26 10 9 11 12 2 7 -8 -4 1 10 20 31 19 21 29 34 21
30 -10 -6 -12 -4 -7 4 5 7 14 10 21 7 8 -3 11 2 8 15 -3 11 1 21 11 25 9 3 13
10 10 15 -3 5 -1 9 4 9 5 0 12 9 15 21 4 13 10 18 18 13 7 -4 10 -3 6 4 -6 8
0 42 7 42 0 0 1 -80 1 -178z m200 42 l88 -136 -17 -76 c-9 -42 -22 -108 -29
-147 l-12 -70 -21 35 c-11 19 -40 68 -63 107 l-43 73 -2 175 c-2 96 1 175 5
175 4 0 46 -61 94 -136z m-652 50 c13 -4 17 -16 17 -55 0 -54 -3 -56 -82 -43
l-38 7 0 54 0 55 43 -7 c23 -3 50 -9 60 -11z m1105 -41 c-3 -46 -5 -48 -33
-49 -16 -1 -34 -3 -40 -4 -29 -7 -36 1 -33 40 2 36 6 42 32 49 17 5 41 10 54
10 21 1 23 -2 20 -46z m694 -106 c-1 -5 1 -6 6 -3 12 7 54 -38 45 -48 -4 -4 0
-4 10 0 13 4 16 2 11 -9 -3 -8 0 -18 7 -23 8 -4 10 -3 5 4 -4 7 -3 12 2 12 12
0 53 -45 47 -52 -3 -3 2 -11 12 -19 14 -12 15 -12 9 0 -6 9 -5 12 5 9 8 -3 13
-11 12 -17 -2 -6 0 -10 5 -9 8 3 92 -76 92 -87 0 -4 -7 -4 -16 -1 -8 3 -13 2
-10 -3 7 -10 -68 -81 -85 -81 -7 0 -9 -3 -6 -7 4 -3 -8 -17 -25 -30 -35 -25
-53 -30 -42 -10 4 6 3 9 -1 4 -5 -4 -10 -18 -12 -30 -2 -12 -11 -29 -20 -37
-9 -8 -13 -10 -9 -3 3 6 1 15 -5 19 -7 4 -9 3 -6 -3 10 -15 -73 -105 -90 -99
-8 3 -12 2 -10 -2 3 -4 -1 -12 -8 -19 -11 -10 -27 1 -85 56 -39 38 -68 71 -63
73 4 3 3 4 -3 2 -17 -4 -35 11 -38 32 -2 10 -7 19 -12 19 -18 0 -34 17 -28 27
4 7 2 8 -4 4 -13 -8 -64 33 -56 46 3 5 2 7 -3 6 -4 -1 -20 9 -35 23 l-28 26
38 34 c20 19 44 34 52 34 8 0 15 7 15 15 0 23 82 90 103 84 12 -4 13 -3 5 3
-9 7 0 22 33 58 25 28 42 43 39 35 -4 -8 8 2 26 22 l33 36 46 -41 c25 -23 44
-46 42 -50z m-3149 71 l38 -2 -2 -47 -3 -48 -45 4 c-25 2 -52 5 -58 6 -8 2
-13 18 -13 44 0 47 6 57 29 50 9 -2 33 -5 54 -7z m3795 -41 c3 -39 1 -45 -15
-42 -10 1 -22 0 -28 -4 -5 -3 -24 -6 -41 -7 -30 -1 -32 2 -38 39 -8 48 -3 55
49 59 69 6 70 5 73 -45z m-1328 -157 l0 -48 -42 -7 c-24 -3 -51 -9 -60 -11
-16 -5 -18 2 -18 50 l0 55 38 6 c20 4 44 7 52 9 26 4 30 -4 30 -54z m-1111 35
c2 -2 6 -22 8 -44 4 -33 1 -40 -16 -46 -11 -3 -26 -3 -32 1 -7 4 -21 8 -33 9
-11 1 -24 3 -28 4 -5 0 -8 21 -8 45 l0 44 52 -4 c29 -3 54 -7 57 -9z m241 -70
c0 -23 7 -94 15 -159 l14 -118 -63 -126 -64 -127 -4 225 -3 225 45 72 c47 77
60 78 60 8z m-919 35 c25 -14 25 -56 -1 -70 -45 -24 -86 44 -42 69 21 13 20
13 43 1z m1472 -13 c6 4 8 0 4 -10 -4 -10 -2 -16 6 -14 7 1 11 -6 9 -15 -1 -9
3 -20 9 -24 8 -4 9 -3 5 4 -4 7 -4 12 -1 12 3 0 12 -15 20 -33 17 -41 22 -357
5 -357 -6 0 -8 -5 -4 -12 11 -18 13 -68 2 -68 -5 0 -6 5 -3 10 3 6 1 10 -5 10
-7 0 -9 7 -6 16 3 8 2 13 -3 10 -8 -6 -48 72 -43 86 1 5 -3 8 -9 8 -5 0 -7 5
-4 10 3 6 1 10 -5 10 -6 0 -9 4 -6 9 3 5 -1 14 -10 21 -8 7 -13 19 -10 27 4 8
1 11 -5 7 -7 -4 -9 0 -5 14 13 39 26 138 26 194 0 31 4 59 10 63 5 3 8 11 6
18 -1 7 -1 9 1 4 3 -4 10 -4 16 0z m-2123 -78 c0 -40 -3 -47 -17 -44 -10 2
-35 7 -55 10 -37 6 -38 7 -38 49 0 23 2 45 5 48 3 2 27 0 55 -6 l50 -10 0 -47z
m3780 22 c0 -55 0 -55 -83 -67 l-48 -6 3 53 c3 53 4 54 38 60 19 4 47 7 63 8
26 1 27 -1 27 -48z m-2990 -3 c0 -14 -5 -18 -16 -14 -8 3 -13 2 -10 -3 3 -4
-3 -16 -14 -26 -11 -10 -17 -21 -15 -25 3 -4 -11 -21 -30 -37 -19 -17 -35 -38
-35 -47 0 -9 -4 -16 -10 -16 -5 0 -10 -6 -10 -14 0 -19 -26 -40 -35 -26 -3 5
-2 10 4 10 11 0 57 80 53 93 -1 4 3 7 8 7 6 0 10 5 10 10 0 6 10 25 22 43 54
77 78 91 78 45z m-275 10 c5 4 5 1 1 -6 -5 -7 -14 -11 -20 -9 -7 3 -13 -1 -13
-8 0 -9 6 -11 16 -6 19 10 43 3 35 -10 -3 -5 2 -12 11 -15 17 -7 36 -43 41
-79 3 -18 2 -17 -8 3 -6 12 -15 22 -20 22 -13 0 -81 72 -84 89 -4 22 6 33 20
22 7 -6 17 -7 21 -3z m1362 -170 c23 -40 57 -104 77 -143 l37 -70 -27 -7 c-51
-14 -94 -71 -94 -128 0 -40 24 -87 50 -95 35 -11 43 3 35 62 -5 44 -3 58 11
74 20 22 47 25 63 5 7 -8 34 -65 61 -127 l49 -114 -41 -7 c-93 -17 -158 -93
-158 -185 0 -98 69 -165 148 -144 49 14 75 42 75 82 0 59 -48 75 -71 23 -12
-26 -40 -32 -60 -12 -18 18 -14 90 6 114 36 45 106 59 134 27 30 -35 34 -79
30 -293 -10 -463 -9 -478 17 -554 13 -39 50 -124 81 -190 78 -164 100 -233
100 -321 0 -77 -19 -146 -64 -230 l-26 -50 7 40 c15 75 7 197 -17 285 -14 51
-60 158 -117 272 -142 283 -165 368 -144 524 7 45 9 88 5 97 -11 29 -42 19
-69 -21 -51 -77 -51 -249 1 -395 14 -39 66 -148 114 -242 118 -228 135 -281
135 -415 0 -88 -4 -113 -23 -156 -21 -45 -103 -142 -89 -104 45 120 46 187 1
311 -86 238 -174 350 -182 231 -3 -33 9 -69 54 -175 79 -185 85 -285 18 -348
-23 -22 -32 -23 -170 -25 -139 -1 -147 -1 -173 22 -72 60 -69 160 9 344 39 92
54 138 54 175 1 40 -2 50 -17 53 -30 6 -70 -50 -120 -169 -57 -137 -77 -207
-76 -274 0 -45 5 -67 34 -140 16 -40 -56 38 -83 90 -20 40 -27 68 -30 141 -6
130 17 202 143 452 70 138 111 233 125 286 22 88 26 218 9 280 -15 55 -49 97
-74 94 -17 -3 -20 -10 -18 -53 9 -214 7 -239 -19 -315 -15 -41 -71 -166 -127
-278 -118 -239 -148 -340 -138 -470 3 -42 8 -86 11 -97 4 -11 -12 16 -33 60
-52 105 -63 157 -51 243 12 88 20 110 102 286 101 216 112 264 102 456 -14
257 -12 500 4 540 17 41 28 50 64 50 62 0 108 -45 108 -108 0 -59 -53 -84 -75
-35 -14 33 -37 38 -57 13 -22 -28 -23 -49 -2 -79 37 -52 114 -60 163 -17 105
94 40 278 -107 302 -23 4 -42 8 -42 10 0 13 106 240 115 246 20 15 45 8 61
-17 13 -20 14 -33 6 -65 -13 -53 4 -80 41 -63 36 17 54 79 38 132 -12 43 -61
91 -92 91 -10 0 -19 3 -19 7 0 6 85 167 127 241 14 23 28 42 32 42 4 0 26 -33
48 -72z m-782 -141 c0 -111 -4 -208 -9 -216 -5 -8 -5 -12 0 -9 5 4 10 -49 12
-123 2 -93 0 -129 -9 -129 -8 0 -9 -4 0 -13 8 -10 7 -14 -4 -14 -8 0 -15 4
-15 9 0 5 -4 7 -9 3 -11 -6 -58 52 -54 66 2 4 -3 6 -10 3 -16 -6 -141 111
-133 124 3 5 0 9 -7 9 -21 0 -67 35 -60 46 3 5 1 7 -5 3 -5 -3 -27 13 -48 36
-20 24 -31 34 -23 23 13 -18 13 -19 -4 -6 -13 10 -15 17 -6 27 6 8 16 11 22 7
6 -3 7 -1 3 5 -6 10 31 38 46 34 4 -1 5 5 2 13 -6 15 11 22 19 8 2 -5 2 -3 1
4 -4 16 23 36 37 27 8 -4 9 -3 5 4 -8 14 70 102 91 102 8 0 11 5 7 11 -4 8 1
9 17 4 15 -4 19 -3 11 3 -9 6 -5 14 15 33 20 18 23 19 13 4 -14 -19 -14 -19 3
-6 9 7 17 19 17 26 0 18 27 39 33 25 3 -6 4 -5 3 2 -3 9 30 58 38 58 1 0 1
-91 1 -203z m1683 3 l184 -174 -39 -35 c-56 -50 -239 -218 -299 -273 -28 -27
-54 -48 -57 -48 -4 0 -7 165 -7 366 0 348 1 366 18 353 9 -8 100 -92 200 -189z
m760 -492 l-3 -58 -215 187 c-118 102 -215 187 -215 189 0 1 95 87 210 190
l210 188 8 -320 c4 -175 6 -345 5 -376z m-3191 505 c109 -97 199 -180 201
-184 4 -8 -420 -381 -426 -374 -8 8 10 735 19 735 5 0 97 -80 206 -177z m269
99 c-10 -10 -29 15 -21 28 6 9 10 8 17 -4 6 -10 7 -20 4 -24z m3164 -41 c0
-28 -4 -52 -9 -55 -4 -3 -34 -8 -65 -12 l-56 -7 0 51 c0 55 -1 54 70 65 61 10
60 10 60 -42z m-1352 -169 c-1 -21 -8 -37 -20 -43 -10 -5 -18 -8 -18 -5 0 3
-13 1 -30 -4 -27 -8 -31 -6 -36 16 -7 27 2 75 14 72 4 0 14 2 22 5 53 21 70
11 68 -41z m1352 -66 l0 -54 -42 -7 c-24 -3 -51 -9 -60 -11 -16 -5 -18 2 -18
50 l0 55 38 6 c20 4 42 8 47 10 30 10 35 3 35 -49z m-3820 34 c32 -9 35 -13
38 -50 3 -49 -9 -56 -69 -40 -31 9 -39 14 -28 21 10 6 10 9 2 9 -8 0 -13 12
-13 28 0 45 9 49 70 32z m2480 -194 l0 -53 -37 -7 c-80 -13 -83 -11 -83 44 0
43 3 50 23 54 102 22 97 24 97 -38z m-1770 -2 c22 -20 37 -41 33 -47 -3 -6 -1
-7 5 -3 6 3 35 -16 64 -44 29 -28 81 -76 115 -107 35 -30 60 -60 56 -66 -3 -5
-2 -7 3 -4 6 3 16 1 24 -4 12 -8 9 -15 -19 -40 -25 -23 -36 -28 -42 -18 -4 7
-5 18 -2 24 4 5 3 7 -1 3 -4 -3 -8 -10 -8 -15 1 -4 -6 -15 -14 -25 -12 -12
-12 -18 -3 -24 7 -4 10 -3 5 4 -3 6 -2 13 3 16 5 4 12 2 15 -3 4 -5 -8 -20
-26 -32 -18 -13 -42 -31 -52 -41 -11 -10 -24 -18 -28 -18 -5 0 -7 -4 -4 -9 7
-11 -32 -47 -41 -38 -3 4 -11 -3 -18 -16 -6 -12 -17 -21 -23 -19 -7 1 -11 -1
-9 -6 1 -4 -17 -25 -40 -46 -39 -34 -48 -37 -44 -14 0 4 -5 5 -13 2 -7 -3 -30
14 -52 38 -21 24 -41 43 -45 43 -6 0 -18 10 -95 80 -34 32 -41 37 -116 99 -43
34 -62 60 -40 54 4 -2 30 18 57 43 84 79 114 101 126 93 8 -4 9 -3 5 4 -7 12
51 69 66 64 5 -1 7 2 3 7 -7 13 25 30 45 24 13 -4 13 -3 0 6 -13 10 -8 15 13
12 4 0 6 5 5 12 -2 6 4 11 12 9 8 -2 12 0 8 4 -9 8 9 34 24 34 5 0 27 -16 48
-36z m2384 -177 c38 -27 -2 -95 -41 -71 -25 16 -29 55 -7 71 10 7 21 13 24 13
3 0 14 -6 24 -13z m-615 -195 c0 -110 -4 -179 -9 -167 -17 41 -111 337 -108
341 6 6 103 21 111 17 4 -2 7 -88 6 -191z m-1127 174 c22 0 17 -40 -12 -97
-11 -21 -20 -47 -20 -58 0 -11 -5 -23 -10 -26 -6 -4 -8 -10 -5 -15 3 -5 0 -21
-7 -37 -6 -15 -10 -32 -9 -36 1 -5 -3 -6 -8 -3 -5 4 -11 -2 -13 -11 -2 -10 -5
50 -5 132 -1 160 2 170 47 159 14 -4 33 -7 42 -8z m1631 -104 c-4 -9 -2 -13 4
-9 7 4 20 -11 32 -36 27 -56 27 -67 -1 -31 -12 16 -42 49 -65 74 -44 47 -52
65 -30 73 17 7 67 -52 60 -71z m242 68 c8 -13 -2 -30 -51 -82 -22 -23 -53 -64
-68 -90 -28 -48 -39 -57 -51 -38 -4 6 -1 9 7 8 7 -2 25 23 41 57 16 33 34 63
41 67 6 4 7 8 3 8 -4 0 -3 6 3 13 5 6 19 24 31 40 22 29 34 33 44 17z m-3230
-37 c29 2 30 1 30 -43 0 -43 -1 -46 -25 -44 -70 3 -67 0 -65 52 3 58 2 57 18
44 7 -6 26 -10 42 -9z m3825 -32 c0 -28 -3 -52 -7 -54 -5 -3 -29 -8 -55 -11
l-48 -7 0 55 c0 60 1 60 83 65 26 1 27 -1 27 -48z m-3613 -84 c17 -15 20 -24
12 -41 -5 -11 -22 -79 -38 -151 -33 -151 -37 -140 -33 83 3 168 -1 161 59 109z
m928 -816 c-5 -20 -15 -10 -74 80 -37 57 -91 132 -120 167 -48 58 -51 65 -45
99 14 74 91 117 136 76 24 -22 23 -36 -9 -73 -20 -25 -24 -36 -16 -49 28 -46
106 -3 119 66 16 83 -61 160 -149 149 -55 -6 -112 -48 -133 -96 -10 -22 -21
-40 -24 -40 -3 0 -26 20 -50 45 l-45 46 75 68 c41 37 134 120 205 185 l130
117 3 -408 c1 -224 0 -419 -3 -432z m1493 787 c-9 -6 -6 -7 8 -3 20 5 40 -15
36 -36 -1 -4 4 -6 11 -5 18 2 89 -62 82 -73 -3 -5 0 -13 6 -17 8 -4 9 -3 5 4
-27 44 78 -45 123 -103 12 -16 19 -24 16 -17 -6 11 -3 11 13 1 12 -7 19 -15
18 -19 -2 -3 5 -13 16 -22 10 -10 18 -15 18 -10 0 4 4 1 9 -7 7 -10 1 -22 -18
-40 -42 -39 -66 -57 -58 -45 4 7 0 17 -8 24 -8 7 -15 21 -15 32 0 10 -4 16
-10 13 -5 -3 -10 -1 -10 5 0 5 -16 18 -35 27 -19 9 -33 19 -31 22 2 3 -22 6
-55 6 -32 0 -59 -3 -59 -7 0 -4 -8 -9 -19 -13 -30 -9 -58 -39 -53 -55 3 -8 1
-12 -3 -7 -5 4 -9 92 -9 196 -1 181 0 189 17 174 14 -13 15 -18 5 -25z m955
-86 c1 -61 0 -108 -4 -104 -5 6 -38 120 -45 157 -1 6 -5 17 -9 26 -7 19 34 54
47 41 4 -4 9 -58 11 -120z m-3591 -3 c19 -8 24 -19 25 -55 1 -38 -1 -43 -14
-35 -9 4 -24 6 -34 4 -11 -3 -19 0 -19 6 0 7 -4 10 -9 7 -8 -5 -9 17 -2 72 1
15 22 16 53 1z m3778 -1 c0 13 29 17 31 5 9 -84 8 -88 -43 -96 l-37 -6 2 49
c1 35 7 50 17 53 8 1 18 -2 22 -8 5 -6 8 -6 8 3z m-3347 -132 c87 -69 87 -70
68 -90 -44 -50 -54 -116 -24 -166 30 -51 106 -67 143 -30 37 37 21 82 -21 59
-30 -16 -69 3 -69 34 0 29 26 67 47 67 25 0 272 -257 345 -360 69 -96 154
-257 182 -340 49 -152 62 -362 31 -497 -9 -40 -20 -75 -25 -78 -14 -9 -57 75
-69 135 -9 42 -9 87 0 187 18 197 -2 276 -106 423 -62 87 -115 193 -115 228 0
37 -18 62 -45 62 -20 0 -26 -8 -36 -40 -21 -69 1 -135 88 -263 85 -127 97
-147 111 -201 l11 -38 -72 68 c-40 38 -108 100 -150 137 -43 38 -94 94 -114
125 -51 81 -71 90 -99 46 -17 -24 -16 -28 14 -87 37 -75 57 -153 71 -272 5
-49 15 -134 21 -188 7 -54 20 -128 30 -165 l18 -67 -33 38 c-82 94 -140 253
-174 481 -24 152 -45 190 -85 150 -46 -45 13 -374 98 -548 49 -101 32 -88 -52
38 -123 187 -177 411 -171 705 4 143 6 162 25 188 24 32 48 40 69 23 19 -16
19 -50 -1 -78 -19 -28 -15 -66 9 -70 30 -6 65 25 78 68 10 33 9 47 -5 85 -21
53 -61 79 -113 73 l-35 -4 6 45 c14 106 39 200 51 193 6 -4 51 -38 98 -76z
m1960 -73 c51 -208 88 -413 93 -518 l5 -90 -42 85 c-114 237 -134 321 -119
500 5 58 9 120 10 138 0 65 17 29 53 -115z m-976 63 c11 -223 11 -248 -1 -284
-7 -20 -11 -43 -9 -50 3 -7 0 -19 -6 -26 -7 -8 -14 -24 -16 -36 -6 -33 -29
-80 -38 -80 -5 0 -6 -3 -3 -8 2 -4 -10 -38 -28 -75 l-33 -68 3 101 c2 56 6
105 9 110 3 5 8 28 11 52 3 24 10 66 16 93 7 28 11 53 10 58 -1 4 2 7 8 7 5 0
10 10 10 23 0 12 1 32 1 44 0 13 4 25 9 28 5 3 12 30 15 60 5 34 11 52 18 48
6 -4 8 1 5 14 -3 11 0 20 6 20 6 0 12 -14 13 -31z m2401 -95 c2 -26 -9 -84
-14 -78 -3 3 -18 1 -34 -3 -21 -6 -30 -4 -34 6 -3 8 0 14 7 15 9 0 9 2 0 6
-16 6 -17 43 -2 43 5 0 8 4 4 9 -5 10 15 17 51 18 12 0 21 -6 22 -16z m-1054
-33 c-4 -7 -3 -8 4 -4 17 10 50 -11 67 -44 18 -34 19 -44 5 -35 -5 3 -10 1
-10 -4 0 -6 5 -11 10 -11 22 0 8 -29 -36 -74 -25 -27 -40 -45 -33 -40 14 8
-58 -85 -74 -97 -5 -3 -7 -8 -6 -10 7 -8 -28 -48 -36 -41 -5 4 -5 1 -1 -6 5
-8 2 -21 -7 -30 -8 -9 -17 -24 -20 -32 -7 -20 -8 -7 -10 187 -1 88 1 159 5
157 4 -3 4 -12 1 -22 -3 -9 -3 -14 2 -10 4 4 14 3 22 -3 16 -14 18 -33 1 -23
-6 4 -8 3 -4 -4 3 -6 15 -9 26 -7 11 2 22 0 25 -5 3 -4 14 -6 25 -3 11 3 17 9
14 14 -3 5 -1 9 4 9 5 0 14 12 20 26 7 14 8 23 4 20 -5 -3 -19 5 -31 18 -23
25 -24 62 0 77 20 13 42 11 33 -3z m-2794 -186 c0 -5 10 -8 23 -8 20 1 22 -4
22 -44 0 -46 -14 -58 -42 -37 -7 5 -17 6 -23 2 -6 -4 -10 6 -10 24 0 25 4 31
23 32 l22 2 -22 4 c-23 4 -29 14 -16 26 9 10 23 9 23 -1z m3845 -40 c5 -45 0
-51 -45 -57 -29 -3 -30 -2 -30 33 0 46 8 59 40 64 32 5 30 7 35 -40z m-3825
-195 c0 15 21 -14 25 -35 2 -15 -1 -22 -11 -22 -8 0 -12 -5 -9 -10 4 -6 11 -8
16 -5 5 4 9 1 9 -4 0 -12 -11 -14 -34 -5 -9 3 -13 11 -10 16 4 6 -2 8 -15 3
-19 -6 -21 -2 -21 28 0 41 7 49 31 36 11 -5 19 -6 19 -2z m3840 -27 c0 -42 -2
-44 -67 -64 -22 -7 -23 -5 -23 43 0 53 5 57 63 60 25 1 27 -2 27 -39z m-3023
-312 c99 -101 108 -126 110 -300 1 -152 10 -201 45 -251 11 -16 18 -30 15 -33
-10 -11 -97 39 -137 79 -48 49 -85 122 -104 209 -12 52 -46 339 -46 386 0 19
42 -14 117 -90z m2256 69 c-4 -6 -6 -24 -5 -40 2 -17 -2 -26 -8 -22 -6 4 -8
-5 -4 -22 3 -15 0 -66 -6 -113 -7 -47 -13 -97 -14 -111 -1 -14 -6 -31 -10 -37
-6 -10 -15 -55 -18 -89 -1 -7 -7 -13 -15 -13 -7 0 -13 -5 -13 -11 0 -5 4 -7
10 -4 6 3 7 -1 4 -9 -3 -9 -10 -13 -15 -10 -5 3 -6 -1 -3 -9 7 -19 -110 -137
-135 -137 -14 0 -18 5 -14 20 3 11 9 23 14 25 4 3 6 12 2 20 -3 8 0 15 7 15 7
0 10 7 6 15 -3 8 -2 35 3 58 4 24 4 76 -1 116 -5 47 -5 78 1 85 6 7 8 23 5 37
-5 20 -4 21 6 9 9 -12 10 -10 5 13 -4 21 -3 27 6 21 8 -4 9 -3 5 4 -7 12 44
95 67 108 6 4 3 -3 -8 -17 l-20 -24 24 20 c13 11 27 30 32 42 4 12 24 29 43
38 20 9 35 20 34 23 -2 17 3 23 12 17 6 -4 7 -12 3 -18z m1637 -101 c125 -17
264 -47 380 -82 l84 -26 -90 -46 c-101 -53 -175 -104 -249 -174 l-51 -47 -94
24 c-376 97 -779 98 -1145 4 -187 -48 -173 -50 -126 12 23 30 59 89 82 132 46
88 37 82 209 132 132 38 320 72 465 85 129 11 401 4 535 -14z m-5070 3 c41 -5
100 -11 130 -14 30 -3 57 -9 60 -13 3 -4 18 -9 33 -10 16 -1 55 -9 87 -17 32
-8 70 -15 84 -15 14 0 26 -4 26 -8 0 -4 8 -8 18 -9 46 -3 158 -47 155 -61 -2
-7 2 -12 8 -12 5 0 8 -4 4 -9 -3 -5 -1 -12 4 -15 15 -9 52 -78 39 -71 -7 4 -3
-2 9 -12 12 -10 23 -25 25 -33 2 -8 11 -21 20 -28 10 -7 15 -19 11 -29 -5 -12
-3 -14 7 -8 8 5 11 4 6 -3 -4 -7 -16 -7 -39 -1 -17 6 -39 12 -47 14 -8 2 -44
11 -80 20 -36 9 -74 17 -85 19 -11 2 -33 9 -48 15 -16 6 -26 7 -23 3 2 -4 -13
-6 -35 -4 -21 2 -39 7 -39 11 0 3 -22 6 -50 5 -27 0 -50 3 -50 6 0 10 -312 4
-435 -8 -55 -6 -108 -11 -117 -11 -51 -5 -75 -8 -89 -15 -9 -4 -27 -8 -40 -10
-13 -2 -31 -6 -39 -9 -25 -9 -74 -19 -102 -20 -16 -1 -28 -5 -28 -9 0 -16 -28
-7 -46 14 -18 20 -18 21 -1 15 11 -4 16 -3 12 4 -4 5 -16 7 -27 3 -16 -5 -20
-3 -15 9 4 11 2 14 -8 10 -8 -3 -18 2 -21 11 -3 9 -11 16 -16 16 -17 0 -67 47
-60 55 4 5 1 5 -7 0 -9 -5 -19 -2 -28 10 -7 11 -28 24 -46 30 -17 6 -31 16
-30 23 2 6 -3 9 -11 6 -7 -3 -20 2 -29 10 -8 8 -17 12 -21 9 -3 -4 -6 -1 -6 5
0 7 -8 12 -17 12 -21 1 42 30 72 34 11 2 33 9 49 15 16 7 35 10 42 7 6 -2 16
0 22 6 6 6 29 11 51 11 22 0 39 3 36 6 -2 4 4 8 13 9 9 1 49 6 87 12 179 27
477 36 625 19z m-1360 -182 c16 3 37 2 46 -1 15 -6 15 -8 -1 -26 -23 -25 -32
-25 -74 1 -27 16 -31 23 -20 30 8 5 15 5 17 -1 2 -5 16 -7 32 -3z m7279 4 c11
-7 4 -15 -32 -32 l-47 -23 -26 25 -26 24 49 6 c26 3 53 6 58 7 6 1 16 -2 24
-7z m-6985 -60 l39 -17 -66 -52 c-37 -29 -72 -52 -78 -52 -6 0 -23 10 -38 23
l-28 22 45 53 c48 57 46 56 126 23z m2832 -210 c35 -31 35 -31 12 -40 -13 -6
-62 -25 -109 -44 l-86 -34 23 71 c12 39 25 94 29 121 11 80 13 81 55 17 23
-33 56 -74 76 -91z m-2581 58 c4 -5 -193 -124 -206 -124 -3 0 -18 14 -33 31
l-26 32 87 65 87 65 44 -31 c24 -17 45 -34 47 -38z m6364 -95 l-31 -32 -87 50
c-134 79 -127 69 -74 110 l46 36 89 -66 88 -66 -31 -32z m-2685 97 c5 -31 5
-32 -12 -20 -16 13 -16 12 -1 -6 15 -18 38 -77 43 -108 1 -7 6 -18 10 -26 7
-11 6 -12 -5 -5 -8 5 -16 9 -19 10 -35 6 -59 18 -54 26 3 5 0 9 -7 7 -32 -4
-50 1 -43 13 5 8 2 9 -10 5 -9 -4 -25 -2 -34 4 -16 10 -13 16 25 56 24 24 43
48 43 53 0 5 7 6 17 3 10 -4 14 -2 10 4 -4 6 -4 19 -1 28 9 24 30 0 38 -44z
m-2534 -37 c295 -40 618 -155 857 -306 l68 -43 -37 -3 c-25 -2 -48 4 -75 21
-63 39 -379 195 -422 208 -32 10 -43 9 -56 -1 -40 -33 -9 -68 120 -133 50 -25
83 -46 75 -46 -51 -2 -320 88 -472 158 -37 17 -76 31 -87 31 -48 0 -65 -85
-35 -172 45 -134 211 -216 411 -204 59 4 60 4 55 -20 -12 -62 36 -67 210 -24
66 17 124 30 128 28 5 -2 -12 -25 -36 -52 -44 -48 -44 -48 -142 -63 -127 -19
-381 -12 -502 15 -163 36 -413 203 -471 314 -23 44 -25 118 -4 157 29 56 114
65 137 15 10 -22 9 -32 -8 -63 -22 -39 -21 -66 2 -75 39 -15 94 48 94 108 0
140 -169 193 -272 85 -80 -83 -69 -227 26 -338 l21 -25 -30 18 c-118 73 -229
166 -334 281 -85 93 -91 85 89 116 215 38 466 43 690 13z m4175 5 c4 -5 -4 -9
-17 -9 -41 0 -58 -3 -58 -12 0 -4 -5 -8 -11 -8 -14 0 -32 -19 -49 -50 -14 -26
-20 -141 -7 -133 4 2 7 -1 7 -7 0 -20 48 -60 64 -54 10 4 16 1 16 -7 1 -22 29
34 30 57 0 12 -7 27 -15 34 -20 17 -19 54 3 72 45 39 120 -8 126 -80 2 -27 -2
-46 -10 -53 -8 -6 -14 -17 -14 -23 0 -6 5 -4 10 4 11 17 13 10 4 -14 -3 -9
-11 -13 -17 -9 -6 4 -7 1 -2 -7 5 -8 2 -17 -6 -24 -8 -6 -22 -24 -32 -39 -10
-16 -21 -26 -24 -23 -3 2 -16 -7 -30 -22 -14 -15 -29 -26 -34 -24 -5 1 -9 -3
-9 -10 0 -6 -3 -9 -6 -5 -3 3 -18 -5 -33 -19 -14 -14 -39 -32 -56 -40 -27 -14
-28 -14 -11 1 11 8 15 15 8 15 -6 0 -18 -10 -26 -22 -14 -20 -21 -18 -17 5 1
5 -3 6 -8 2 -6 -3 -8 -12 -4 -20 3 -10 -6 -20 -28 -29 -19 -8 -38 -18 -42 -22
-9 -9 -13 -10 -60 -12 -16 -1 -26 -5 -24 -9 3 -5 -20 -9 -51 -11 -31 -2 -59
-6 -62 -10 -8 -10 -21 -12 -152 -19 -102 -5 -120 -4 -113 8 6 11 5 12 -6 2
-14 -14 -33 -18 -25 -5 2 4 -11 6 -30 4 -18 -2 -42 -1 -51 3 -10 4 -38 9 -62
11 -24 2 -49 9 -55 15 -8 9 -7 10 3 4 10 -6 12 -4 7 4 -4 6 -13 10 -20 9 -7
-2 -27 12 -44 30 -16 17 -29 32 -27 32 2 0 16 -5 32 -11 15 -7 49 -13 75 -15
25 -2 66 -10 90 -19 55 -19 112 -19 131 0 8 8 17 12 19 10 7 -7 3 29 -4 40 -4
6 27 11 80 12 48 1 110 8 137 14 28 6 58 12 67 12 9 1 14 6 11 11 -4 5 1 7 10
3 10 -3 17 -2 17 3 0 6 7 10 16 10 9 0 12 -5 8 -12 -4 -8 -3 -10 2 -5 5 5 10
13 10 18 1 5 2 13 3 17 0 5 18 21 38 35 21 15 34 27 29 27 -5 0 -2 8 6 18 19
21 41 87 43 127 0 17 4 36 9 43 4 7 2 12 -4 12 -6 0 -9 4 -6 9 3 5 -1 14 -10
21 -8 7 -13 18 -11 24 7 16 -70 7 -84 -10 -6 -8 -15 -14 -20 -14 -5 0 -33 -11
-63 -25 -91 -41 -102 -45 -115 -32 -10 9 -12 9 -9 -2 3 -15 -148 -75 -164 -65
-5 3 -16 0 -24 -7 -8 -6 -17 -9 -21 -6 -3 4 -15 2 -27 -4 -20 -10 -20 -9 -3 5
11 8 26 12 35 9 10 -4 13 -2 8 5 -4 7 -2 12 4 12 7 0 26 10 43 22 17 12 27 17
23 10 -5 -8 -2 -10 8 -6 9 3 15 9 14 12 -3 15 15 41 24 36 5 -3 3 7 -6 24 -15
30 -73 52 -85 33 -3 -4 -15 -5 -26 -1 -16 6 -12 9 20 15 22 5 45 9 50 9 6 1
12 4 16 8 7 11 102 28 113 21 5 -4 6 -1 3 4 -6 10 65 28 153 39 19 3 49 7 65
10 17 3 66 8 110 10 61 4 76 2 65 -7 -13 -9 -12 -10 3 -5 10 3 21 6 23 6 3 0
3 4 0 8 -3 5 26 9 64 9 39 1 72 -3 75 -8z m61 3 c-2 -4 4 -8 15 -8 10 0 19 4
19 8 0 4 7 8 16 8 8 0 13 -3 11 -7 -3 -5 23 -9 56 -10 93 -2 126 -7 120 -17
-3 -4 3 -5 14 -2 10 3 41 1 69 -5 27 -5 61 -13 77 -16 15 -3 27 -12 27 -20 0
-8 -4 -11 -10 -8 -5 3 -7 0 -5 -7 5 -13 -61 -87 -77 -88 -5 0 -8 -3 -9 -7 -1
-16 -42 -52 -52 -46 -6 3 -7 2 -4 -4 6 -9 -14 -31 -72 -78 -16 -13 -22 -15
-17 -5 5 8 -3 2 -16 -14 -16 -19 -29 -26 -38 -21 -8 5 -11 4 -6 -3 3 -6 -2
-16 -13 -22 -13 -7 -22 -7 -26 0 -3 5 2 10 12 10 15 0 16 2 3 10 -11 7 -11 10
-2 10 7 0 11 4 8 9 -4 5 -2 11 3 13 6 1 11 15 13 30 2 15 6 30 9 33 3 2 2 28
-2 57 -3 29 -4 56 -2 61 2 4 -7 22 -21 40 -47 58 -69 77 -90 77 -22 0 -46 11
-46 21 0 5 9 9 21 9 11 0 18 -4 15 -8z m784 -147 c47 -26 87 -49 89 -51 2 -2
-35 -57 -60 -87 -4 -5 -61 20 -128 56 l-121 64 41 51 42 51 26 -18 c14 -9 64
-39 111 -66z m-3065 14 c3 -8 8 -37 11 -65 2 -27 7 -65 10 -85 7 -41 -25 -123
-51 -133 -11 -4 -14 -2 -9 6 5 8 2 9 -10 5 -9 -4 -15 -3 -11 2 3 5 1 11 -5 13
-5 1 -11 13 -13 25 -2 12 -6 25 -9 28 -9 9 1 168 11 178 5 5 7 16 4 23 -4 10
0 12 13 7 9 -3 15 -2 12 3 -4 5 5 9 18 9 13 0 26 -7 29 -16z m1445 1 c13 -9
13 -10 0 -11 -8 -1 -21 -1 -29 0 -8 2 -10 -2 -5 -10 4 -7 3 -10 -4 -5 -5 3
-12 2 -14 -2 -5 -13 -120 -72 -129 -66 -5 3 -9 1 -9 -5 0 -5 -14 -17 -32 -25
-34 -18 -51 -21 -28 -6 9 6 10 10 3 10 -7 0 -16 -6 -20 -14 -14 -24 -48 -36
-63 -23 -10 10 -11 9 -5 -2 6 -11 4 -13 -10 -7 -15 5 -16 4 -5 -9 11 -13 1
-22 -14 -12 -2 1 -14 -7 -26 -18 -11 -10 -33 -20 -48 -22 -15 -1 -21 0 -14 3
6 3 10 10 6 15 -3 5 1 10 8 10 7 1 20 2 28 3 8 0 15 7 15 14 0 6 3 11 6 10 4
-2 15 5 25 14 11 9 31 20 46 23 16 4 25 11 22 16 -3 5 -2 9 3 7 11 -2 83 32
107 52 11 8 16 9 12 3 -5 -9 -2 -11 8 -7 9 3 13 11 10 16 -4 6 -1 8 7 6 8 -3
13 -11 11 -17 -1 -7 2 -10 8 -6 6 3 8 10 5 15 -7 12 22 33 36 24 8 -5 9 -3 4
6 -6 9 -4 12 6 8 8 -3 23 0 34 8 22 16 25 17 45 4z m-1231 -11 l50 -10 23 -67
c25 -73 25 -102 1 -138 -32 -49 -90 -15 -121 71 -13 36 -21 155 -11 155 5 0
30 -5 58 -11z m-445 -36 c-3 -21 -7 -54 -8 -73 -4 -43 -20 -85 -37 -96 -8 -5
-9 -3 -4 6 5 8 4 11 -3 6 -6 -4 -8 -14 -5 -23 4 -11 3 -14 -5 -9 -7 4 -12 2
-12 -5 0 -8 -5 -7 -17 2 -14 12 -16 12 -9 -1 4 -8 -4 -2 -18 13 -14 15 -26 38
-26 50 0 37 20 98 30 92 6 -3 7 1 4 9 -8 21 15 59 32 52 8 -3 14 -1 14 4 0 6
15 10 34 10 34 0 34 -1 30 -37z m-272 -56 c-2 -12 -8 -26 -12 -32 -4 -5 -10
-27 -14 -48 -4 -21 -11 -35 -16 -32 -4 3 -6 -3 -4 -12 6 -23 -19 -69 -35 -65
-7 1 -10 -2 -7 -7 13 -20 -14 -21 -33 -2 -30 30 -34 60 -14 121 15 45 24 58
53 71 19 9 41 14 49 11 8 -3 12 -1 8 4 -3 6 3 10 13 11 13 1 16 -4 12 -20z
m971 10 c34 -13 52 -18 53 -15 0 2 9 -3 18 -11 9 -8 15 -19 13 -25 -2 -6 3
-17 11 -25 8 -8 12 -26 10 -42 -3 -15 -1 -26 4 -23 10 6 -1 -47 -12 -59 -14
-16 -49 -15 -63 1 -16 19 -31 55 -19 48 4 -2 8 4 8 14 0 13 -4 16 -12 9 -8 -7
-13 0 -18 22 -3 17 -3 36 1 42 3 5 1 7 -4 4 -12 -8 -26 20 -17 34 3 5 1 9 -4
9 -5 0 -9 6 -9 14 0 14 8 14 40 3z m1384 -54 c-40 -77 -123 -115 -263 -121
-64 -3 -108 0 -120 6 -18 11 -18 11 -1 12 25 0 271 84 337 114 30 14 56 24 58
22 2 -2 -3 -17 -11 -33z m-3702 -14 c-3 -4 2 -10 11 -13 8 -3 12 -2 9 4 -10
16 11 12 25 -5 7 -8 18 -14 24 -13 19 3 96 -25 96 -35 0 -5 7 -7 15 -4 8 4 17
2 20 -3 3 -5 13 -6 22 -3 11 4 14 3 9 -5 -5 -8 2 -12 21 -13 l28 -1 -28 -10
c-21 -7 -32 -6 -44 4 -9 7 -14 8 -10 2 6 -11 -18 -11 -63 -1 -8 2 -32 7 -53
12 -20 4 -40 11 -43 16 -3 5 -10 7 -15 3 -5 -3 -23 6 -40 20 -17 14 -27 26
-24 26 4 0 -3 9 -16 21 -13 11 -18 17 -10 13 11 -5 13 -3 8 9 -6 15 -3 15 28
0 19 -9 32 -20 30 -24z m-949 -44 c18 -33 30 -63 26 -66 -7 -7 -275 -90 -278
-86 -1 1 -11 21 -23 44 -16 32 -18 44 -9 50 46 30 226 121 237 120 8 -1 29
-29 47 -62z m5597 42 c-4 -6 -1 -7 6 -2 8 4 19 -1 28 -15 9 -12 21 -19 30 -16
8 3 25 -5 39 -19 26 -26 40 -33 28 -14 -4 7 7 4 24 -6 17 -10 28 -23 25 -28
-4 -6 -1 -7 7 -2 7 4 16 2 20 -5 10 -16 -26 -79 -43 -76 -28 6 -103 29 -112
34 -11 7 -17 9 -41 11 -9 0 -12 6 -8 13 4 7 3 8 -4 4 -18 -11 -92 13 -92 29 0
8 8 19 18 24 9 6 13 11 8 11 -6 0 -1 7 10 16 10 8 12 12 5 8 -9 -5 -6 5 7 24
14 19 28 29 37 26 8 -4 12 -11 8 -17z m-3580 -109 c-7 -90 -24 -134 -58 -150
-38 -17 -58 7 -63 81 l-4 60 62 40 c35 23 64 41 66 41 2 0 0 -33 -3 -72z
m3317 -33 c0 -3 -9 -24 -20 -46 -32 -61 -105 -262 -141 -384 -17 -61 -33 -112
-35 -113 -2 -3 -122 63 -133 73 -2 2 14 11 35 20 102 42 144 151 86 221 -38
46 -85 55 -133 27 -53 -31 -64 -109 -18 -133 32 -17 49 -5 49 35 0 28 4 35 20
35 25 0 36 -40 20 -70 -27 -51 -168 -83 -235 -54 -22 9 -82 32 -134 49 l-94
32 79 18 c189 42 409 136 559 238 77 54 95 63 95 52z m-2965 -25 c3 -5 -1 -10
-10 -10 -9 0 -13 5 -10 10 3 6 8 10 10 10 2 0 7 -4 10 -10z m-2217 -195 c-10
-10 -293 -73 -299 -67 -3 4 -15 33 -27 64 l-21 57 102 31 c56 17 120 37 142
44 l40 14 33 -71 c18 -38 31 -71 30 -72z m3719 -25 c1 -46 -1 -50 -22 -50 -48
0 -75 47 -81 143 l-5 72 53 -57 c50 -53 54 -61 55 -108z m-2107 133 c0 -10 -4
-45 -10 -77 -11 -67 -40 -106 -78 -106 -21 0 -24 4 -19 28 2 15 1 36 -3 47 -6
16 3 31 43 73 55 56 67 62 67 35z m635 -55 c-78 -55 -162 -155 -203 -238 -56
-113 -73 -185 -73 -300 0 -113 18 -188 68 -290 48 -98 178 -231 273 -279 l65
-33 -60 7 c-100 11 -280 54 -403 97 -218 75 -424 185 -612 328 -118 90 -117
77 -14 181 246 249 538 423 876 523 103 31 122 32 83 4z m890 -29 c297 -97
586 -279 809 -508 67 -70 77 -83 65 -97 -23 -28 -202 -159 -292 -213 -239
-144 -551 -253 -817 -286 l-55 -7 65 34 c96 49 225 181 272 278 139 283 60
625 -187 808 l-60 45 40 -8 c22 -4 94 -24 160 -46z m-520 11 c-4 -6 11 -8 37
-6 52 5 151 -21 142 -36 -4 -6 -2 -8 4 -4 12 7 62 -13 62 -26 0 -5 4 -7 8 -4
11 7 64 -29 55 -37 -3 -4 -1 -7 6 -7 7 0 9 -5 5 -11 -4 -7 0 -9 13 -5 12 4 25
1 33 -9 7 -8 9 -15 5 -15 -3 0 7 -14 25 -31 34 -34 76 -109 61 -109 -5 0 -12
6 -14 13 -4 9 -6 9 -6 -1 -1 -8 8 -16 19 -19 19 -5 24 -14 21 -40 -1 -7 3 -13
9 -13 7 0 9 -8 5 -21 -5 -13 -3 -19 3 -15 5 3 10 -4 11 -17 0 -12 2 -59 5
-104 2 -46 0 -83 -5 -83 -5 0 -6 -13 -2 -30 3 -16 1 -30 -4 -30 -5 0 -9 -10
-10 -22 -1 -12 -12 -35 -24 -51 -12 -17 -16 -26 -9 -22 33 21 -55 -98 -107
-144 -65 -57 -70 -61 -77 -54 -3 4 -6 1 -6 -5 0 -14 -88 -58 -97 -49 -3 4 -15
0 -27 -8 -24 -17 -40 -20 -31 -5 3 6 -1 7 -9 4 -9 -3 -16 -9 -16 -13 0 -4 -44
-6 -97 -5 -134 4 -133 4 -133 15 0 5 -14 9 -31 9 -20 0 -28 4 -23 11 4 7 1 10
-7 7 -14 -5 -69 17 -69 28 0 3 5 2 12 -2 7 -4 8 -3 4 4 -4 6 -14 8 -23 5 -12
-5 -14 -3 -8 7 5 9 4 11 -3 6 -15 -9 -94 63 -85 77 3 6 1 7 -5 3 -12 -7 -52
39 -52 61 0 8 -4 11 -10 8 -9 -6 -11 -2 -14 32 -1 6 -9 19 -18 30 -30 33 -47
121 -43 218 5 127 5 124 17 153 6 15 12 29 12 32 5 25 30 69 37 64 5 -3 6 3 2
12 -4 12 -3 15 5 10 7 -4 10 -2 7 6 -7 17 43 70 57 62 7 -5 8 -2 4 5 -9 14 21
51 41 51 7 0 16 7 20 16 3 8 12 13 19 10 7 -3 19 3 26 12 17 23 68 55 75 48 4
-3 11 -2 17 4 12 9 55 19 120 25 21 2 41 6 44 9 9 10 24 7 17 -4z m1285 -256
c28 -45 50 -85 50 -88 0 -4 -30 19 -67 50 -104 87 -98 77 -72 113 16 23 25 28
31 19 5 -7 31 -50 58 -94z m-3831 25 c12 -39 21 -72 19 -73 -3 -3 -247 -36
-292 -39 -13 -2 -22 9 -31 35 -29 82 -34 77 110 113 72 18 139 33 151 34 16 1
24 -12 43 -70z m5149 55 c13 -9 30 -13 38 -10 9 3 25 1 36 -5 11 -6 33 -12 47
-14 14 -1 50 -8 79 -15 40 -9 52 -16 48 -27 -3 -8 -6 -21 -6 -29 0 -9 -5 -12
-11 -8 -8 4 -9 0 -4 -15 10 -34 -32 -48 -89 -29 -25 8 -43 11 -40 7 3 -5 -1
-7 -8 -4 -7 2 -37 7 -66 9 -99 11 -100 11 -91 62 5 25 12 51 16 57 4 7 8 15 9
20 3 15 4 17 12 17 4 0 18 -7 30 -16z m-4021 -36 c-25 -42 -26 -43 -95 -50
-101 -10 -233 -41 -342 -80 -95 -34 -95 -34 -95 -68 0 -40 22 -55 115 -77 71
-16 130 -16 205 1 58 14 59 14 35 -4 -28 -21 -112 -50 -144 -50 -39 0 -126
-30 -147 -51 -26 -26 -24 -45 5 -64 19 -13 29 -14 46 -5 26 14 190 49 190 40
0 -3 -13 -19 -29 -34 -30 -29 -30 -29 -138 -23 -151 7 -207 24 -259 80 -55 57
-74 116 -50 152 18 28 36 25 36 -5 0 -30 34 -43 54 -21 27 29 20 76 -14 105
-36 30 -40 27 100 79 106 40 257 79 370 97 41 6 82 13 90 15 8 1 32 3 54 4
l38 1 -25 -42z m210 15 c6 -13 8 -21 3 -18 -4 3 -10 -2 -14 -10 -3 -8 -11 -15
-18 -15 -9 0 -9 3 2 10 12 7 10 9 -7 7 -17 -1 -20 -5 -13 -18 9 -15 -12 -43
-47 -63 -18 -10 -9 25 10 39 9 7 14 15 10 18 -3 4 0 7 7 7 7 0 10 3 7 6 -12
12 14 46 30 40 12 -5 13 -4 5 7 -9 10 -9 14 1 14 7 0 18 -11 24 -24z m2777 2
c40 -5 55 -10 45 -16 -9 -5 0 -6 24 -2 25 4 37 2 37 -6 0 -7 9 -9 26 -5 18 5
25 3 20 -4 -4 -6 1 -11 11 -11 10 0 29 -2 43 -4 14 -3 31 -5 38 -6 7 0 11 -5
8 -10 -4 -5 2 -7 12 -4 18 4 76 -20 67 -29 -3 -3 5 -5 17 -4 29 2 69 -14 62
-25 -3 -5 1 -6 9 -3 8 3 18 1 21 -5 4 -6 13 -8 20 -5 8 3 17 1 20 -4 9 -16
-25 -24 -43 -10 -13 10 -14 10 -3 -2 14 -16 17 -44 3 -36 -5 4 -8 -18 -8 -47
2 -53 2 -53 33 -52 34 1 73 30 51 38 -6 2 -9 8 -5 12 13 14 35 -14 36 -47 0
-18 -9 -49 -20 -70 -17 -30 -26 -37 -42 -32 -15 4 -17 3 -7 -4 17 -12 8 -28
-19 -35 -11 -3 -18 -1 -15 3 3 5 1 12 -5 15 -6 4 -10 3 -9 -2 4 -21 -3 -31
-28 -41 -41 -16 -101 -25 -84 -14 20 14 19 55 -1 70 -10 7 -15 18 -12 24 4 7
2 8 -5 4 -6 -4 -17 -3 -24 2 -12 10 -85 28 -99 24 -13 -3 -122 28 -132 38 -7
7 -6 10 1 10 7 0 15 -5 18 -10 4 -6 14 -9 23 -6 10 3 56 6 105 7 48 2 87 7 87
11 0 5 4 7 9 3 5 -3 25 4 45 16 19 11 39 18 44 15 10 -6 10 80 -1 90 -4 4 -21
9 -38 11 -16 1 -40 8 -52 15 -12 7 -24 13 -27 13 -50 8 -80 18 -80 27 0 5 -7
8 -15 4 -8 -3 -15 -1 -15 3 0 5 -9 7 -20 4 -11 -3 -20 -1 -20 3 0 5 -15 9 -32
10 -18 1 -46 4 -63 8 -16 4 -54 9 -84 10 -42 2 -58 7 -72 25 -10 12 -15 29
-12 38 5 12 3 14 -7 8 -8 -5 -11 -4 -7 2 4 6 26 7 59 2 29 -4 80 -10 112 -14z
m-3769 -284 c0 -87 5 -85 -68 -26 -20 17 -37 33 -37 37 0 3 24 20 53 37 28 17
52 31 52 31 0 0 0 -35 0 -79z m4467 31 l28 -18 -33 -30 c-77 -71 -72 -72 -72
16 l0 78 25 -14 c14 -7 37 -21 52 -32z m-4753 -4 c4 -13 11 -40 15 -60 l7 -38
-164 0 -164 0 -6 37 c-4 20 -4 39 -1 42 5 5 232 38 277 40 20 1 30 -5 36 -21z
m5148 3 c67 -9 125 -19 127 -22 3 -3 3 -22 -1 -42 l-6 -37 -163 0 c-94 0 -164
4 -164 9 0 5 5 32 12 60 14 60 7 59 195 32z m-932 -191 c11 -4 26 -5 33 -3 6
3 12 0 12 -6 0 -6 6 -8 13 -5 7 2 20 -1 30 -8 15 -11 6 -13 -57 -15 -54 -1
-78 2 -86 12 -6 8 -9 18 -6 24 3 5 0 12 -6 15 -17 7 41 -5 67 -14z m559 -42
c-3 -23 -10 -46 -17 -50 -9 -6 -9 -8 0 -8 9 0 10 -7 2 -27 -5 -14 -12 -47 -15
-72 -6 -47 -23 -92 -24 -60 0 8 -9 25 -20 37 -11 12 -20 27 -20 33 0 7 -3 9
-7 6 -3 -4 -15 0 -25 10 -10 9 -18 13 -18 8 0 -4 -6 -3 -12 3 -36 29 -144 2
-168 -43 -7 -13 -18 -22 -24 -21 -6 2 -9 1 -6 -1 3 -2 4 -29 3 -62 -1 -52 1
-61 25 -83 15 -14 36 -27 47 -30 42 -10 62 46 30 83 -11 12 -14 19 -7 15 14
-8 17 10 2 19 -5 3 -2 14 7 25 20 23 56 18 91 -13 23 -21 31 -44 11 -31 -6 3
-4 -5 6 -19 14 -22 15 -31 4 -66 -20 -66 -132 -152 -161 -123 -6 6 -17 8 -25
5 -9 -4 -16 2 -20 16 -3 11 -10 18 -15 15 -6 -4 -4 4 3 17 11 21 11 23 -4 11
-13 -11 -16 -10 -23 10 -4 13 -7 26 -6 31 1 4 -3 7 -9 7 -5 0 -7 5 -4 10 3 6
2 10 -4 10 -6 0 -7 7 -4 17 4 11 3 14 -5 9 -8 -5 -12 0 -12 13 0 12 -4 21 -9
21 -5 0 -12 7 -15 16 -3 8 -2 12 4 9 6 -3 7 1 4 9 -3 9 -9 14 -14 11 -10 -6
-32 44 -24 56 3 5 0 8 -8 7 -8 -2 -12 4 -10 16 2 12 -1 16 -10 11 -10 -6 -10
-5 -1 5 10 11 15 11 29 -1 15 -12 17 -12 9 0 -6 11 -4 13 9 8 10 -4 23 -4 29
0 7 5 21 9 32 9 11 1 43 7 70 13 28 6 59 13 70 15 11 2 47 16 80 32 33 16 64
30 69 32 5 3 5 -1 1 -7 -5 -9 -2 -9 13 0 12 7 18 17 16 21 -3 4 1 8 8 8 7 0
27 11 43 25 17 13 31 24 31 25 1 0 0 -19 -2 -42z m-4734 -20 c0 -10 4 -18 8
-18 4 0 8 -8 9 -17 1 -10 6 -35 11 -56 8 -28 7 -40 -2 -43 -6 -2 -79 -3 -161
-2 l-149 3 -8 30 c-4 17 -10 51 -12 78 l-4 47 154 -2 c139 -3 154 -5 154 -20z
m988 -155 c-4 -88 -10 -121 -33 -178 -15 -38 -35 -81 -44 -95 l-16 -24 -7 44
c-10 71 -9 221 3 264 12 44 58 96 85 96 15 0 16 -11 12 -107z m2946 83 c15
-13 26 -28 26 -35 0 -6 4 -11 9 -11 14 0 19 -35 8 -55 -6 -12 -6 -16 1 -11 21
13 27 -142 7 -175 -17 -27 -69 18 -57 50 3 9 1 12 -6 7 -8 -5 -10 2 -5 25 4
23 3 30 -5 25 -13 -8 -14 2 -17 119 -3 95 0 98 39 61z m-144 -89 c0 -64 35
-192 75 -273 40 -82 145 -201 211 -240 35 -20 47 -23 63 -14 25 13 28 52 5 71
-8 7 -25 31 -37 53 -20 38 -22 56 -22 216 0 96 -4 186 -8 200 -16 51 68 -90
134 -225 100 -206 168 -417 204 -638 l13 -79 -37 7 c-46 8 -243 103 -237 114
3 5 20 11 37 15 41 8 94 62 107 109 15 54 -1 98 -48 130 -56 39 -155 5 -148
-52 3 -27 10 -29 88 -19 38 5 41 -42 4 -71 -60 -47 -188 -12 -255 70 -122 149
-196 336 -215 543 -7 78 -6 78 22 102 16 13 32 23 37 24 4 0 7 -20 7 -43z
m-2676 12 c-3 -5 -2 -9 3 -8 27 5 30 -5 28 -83 -3 -101 -23 -210 -38 -201 -6
3 -7 1 -3 -6 10 -16 -50 -171 -66 -171 -5 0 -8 -9 -8 -21 0 -11 -4 -18 -9 -15
-5 3 -12 -1 -15 -10 -4 -9 -2 -13 5 -8 8 4 8 1 1 -12 -19 -34 -59 -74 -66 -67
-4 4 -4 1 -1 -8 3 -9 -7 -27 -28 -46 -36 -32 -84 -62 -73 -45 3 5 -11 1 -31
-9 -40 -20 -93 -17 -127 7 -11 8 -17 14 -12 14 5 0 3 7 -4 15 -24 29 1 37 63
20 22 -6 31 -3 46 16 14 17 16 26 8 31 -7 4 -8 8 -3 8 5 0 -3 11 -17 24 l-25
24 23 0 c13 0 31 7 40 16 9 9 21 13 27 10 6 -4 8 -2 4 4 -3 6 6 20 21 31 44
32 48 37 72 67 12 16 20 23 16 17 -3 -7 -3 -13 0 -13 3 0 13 16 21 35 9 22 19
33 26 29 7 -4 8 -3 4 4 -9 15 38 95 49 85 4 -5 5 0 2 9 -4 10 3 39 14 65 11
27 21 60 21 76 1 15 5 27 10 27 5 0 6 5 3 10 -4 6 -1 18 7 27 7 9 8 14 2 10
-7 -4 -12 3 -12 21 0 33 6 44 19 36 5 -3 7 -10 3 -15z m-328 -39 c0 -11 -4
-20 -8 -20 -4 0 -8 -8 -8 -17 0 -14 2 -15 9 -5 5 8 9 -48 9 -134 0 -97 -4
-154 -11 -162 -6 -8 -12 -21 -13 -28 -1 -8 -15 -31 -30 -51 -23 -30 -26 -40
-17 -62 9 -26 9 -26 -39 -26 -32 -1 -53 -6 -58 -15 -6 -8 -10 -11 -10 -5 0 13
-34 -36 -38 -55 -7 -39 -3 -80 13 -109 15 -30 55 -77 55 -66 0 3 10 -1 23 -10
13 -8 26 -13 29 -10 2 3 5 -2 5 -10 0 -8 -2 -13 -4 -11 -3 2 -14 -5 -25 -16
-11 -11 -26 -17 -34 -14 -9 3 -12 1 -9 -4 6 -9 2 -12 -27 -14 -7 -1 -18 -6
-24 -11 -6 -6 -30 -17 -53 -25 -37 -12 -44 -12 -52 1 -4 8 -6 23 -2 34 3 11 6
27 6 35 -1 29 29 145 40 159 7 9 8 12 1 8 -13 -7 13 102 27 117 5 6 9 19 9 30
1 34 65 188 74 179 5 -4 6 0 3 10 -4 9 -2 17 4 17 6 0 8 4 4 10 -6 10 41 111
57 121 5 3 9 10 8 15 -2 17 33 83 41 78 5 -3 6 1 3 9 -3 8 0 18 6 22 6 4 15
18 20 31 11 29 16 30 16 4z m664 -149 c0 -4 -11 -18 -25 -31 -39 -36 -104
-142 -136 -220 -44 -110 -75 -236 -114 -465 -20 -115 -43 -238 -52 -272 l-15
-63 -127 0 -127 0 8 68 c11 92 34 203 60 287 18 58 33 82 85 139 144 157 238
369 268 607 l6 46 84 -44 c47 -24 85 -48 85 -52z m2155 32 c11 -94 52 -240 94
-329 48 -102 92 -168 175 -266 58 -68 68 -86 90 -165 27 -94 56 -247 56 -294
l0 -29 -124 0 -124 0 -21 88 c-34 147 -41 203 -34 259 5 45 2 59 -14 81 -10
15 -27 65 -37 112 -46 218 -116 379 -209 477 -17 18 -29 35 -26 37 8 8 154 86
161 86 4 0 10 -26 13 -57z m-3526 -20 c6 -31 11 -62 11 -69 0 -14 -69 -22
-232 -27 -121 -3 -111 -11 -123 96 l-7 57 169 0 170 0 12 -57z m5059 53 c5 -3
6 -21 4 -40 -3 -22 -8 -33 -15 -29 -7 4 -8 -5 -4 -25 4 -20 2 -32 -4 -32 -6 0
-8 -4 -4 -9 9 -16 -263 -5 -282 11 -12 9 -15 9 -9 1 4 -8 2 -13 -8 -13 -23 0
-25 11 -14 65 5 28 10 55 11 61 0 11 309 20 325 10z m-1699 -225 c66 -109 102
-210 145 -403 l6 -28 -59 0 c-35 0 -63 5 -69 13 -18 21 -89 249 -117 373 -15
65 -31 126 -36 136 -8 15 -5 20 13 27 31 12 53 -11 117 -118z m551 106 c0 -10
-4 -15 -10 -12 -5 3 -10 1 -10 -4 0 -6 5 -11 10 -11 6 0 10 -6 10 -12 -1 -16
-40 30 -40 46 0 6 9 12 20 12 13 0 20 -7 20 -19z m-2425 2 c4 -6 -2 -17 -14
-25 -12 -8 -21 -23 -20 -32 0 -14 2 -14 10 3 7 15 7 11 3 -15 -3 -19 -10 -39
-14 -44 -5 -5 -6 -15 -3 -22 7 -19 -69 -284 -80 -277 -5 3 -6 -4 -2 -17 5 -17
4 -21 -5 -15 -8 5 -11 4 -6 -3 7 -12 -26 -102 -52 -142 -9 -14 -17 -32 -17
-42 -1 -9 -8 -27 -17 -40 -8 -12 -15 -25 -15 -28 2 -11 -39 -76 -55 -88 -10
-7 -18 -18 -18 -24 0 -7 7 -3 16 8 11 13 10 10 -2 -13 -15 -26 -20 -30 -27
-18 -4 8 -5 20 -2 26 4 5 9 29 12 52 2 23 9 44 14 48 6 3 7 17 4 32 -4 14 -2
34 4 45 6 11 13 46 16 79 3 32 13 83 21 113 8 30 17 65 20 77 2 12 9 35 16 50
6 16 12 30 12 33 5 29 31 88 36 85 5 -3 11 2 14 11 3 8 2 12 -4 9 -6 -3 -7 1
-4 9 3 9 10 13 15 10 5 -3 9 3 9 14 0 11 14 36 30 57 17 21 30 42 30 46 0 5 7
9 16 9 10 0 14 6 11 14 -3 8 -3 17 0 20 10 10 41 7 48 -5z m215 -70 c55 -17
100 -32 100 -35 0 -2 -15 -27 -34 -56 -93 -147 -173 -359 -205 -545 -14 -87
-27 -127 -56 -180 -65 -121 -53 -114 -187 -111 l-117 3 40 63 c53 84 150 279
198 399 64 163 131 402 131 472 0 26 3 32 15 27 9 -3 60 -20 115 -37z m1450 4
c0 -49 50 -246 94 -373 32 -92 33 -100 17 -105 -46 -14 -54 -40 -56 -163 -2
-64 -3 -124 -4 -132 -3 -23 -30 30 -31 58 0 43 -39 217 -66 298 -33 99 -88
219 -142 308 -23 37 -42 70 -42 71 0 2 26 11 58 20 31 9 80 25 107 35 66 25
65 25 65 -17z m1413 -35 c-16 -85 -77 -360 -96 -433 l-14 -50 -7 40 c-12 68
-64 267 -86 329 -11 33 -20 62 -20 65 0 3 20 7 44 8 55 2 110 30 155 77 19 20
36 36 36 36 1 0 -4 -33 -12 -72z m-4327 -18 c7 0 19 -6 26 -12 16 -16 34 -20
70 -20 35 1 47 -17 23 -35 -11 -7 -13 -13 -7 -13 9 0 8 -10 -4 -37 -9 -21 -17
-43 -18 -49 -1 -7 -8 -20 -16 -30 -13 -15 -13 -16 -1 -9 11 6 13 4 7 -11 -4
-10 -10 -30 -12 -44 -3 -14 -12 -50 -20 -81 -7 -31 -14 -67 -15 -80 0 -26 -26
45 -33 91 -2 14 -6 32 -9 40 -12 34 -28 113 -23 118 3 2 1 12 -3 21 -5 9 -12
32 -15 52 -3 20 -8 43 -12 52 -3 10 -1 24 6 32 10 12 9 16 -4 21 -10 4 -15 13
-12 20 3 8 2 14 -3 14 -4 0 -8 7 -8 15 0 8 14 1 36 -20 19 -19 41 -35 47 -35z
m2533 -32 c-11 -20 -10 -21 3 -10 13 10 18 9 28 -3 7 -8 10 -15 7 -15 -3 0 5
-11 17 -25 16 -17 22 -34 19 -48 -3 -16 -2 -18 5 -9 7 10 15 2 33 -35 13 -26
23 -51 21 -55 -1 -5 3 -8 9 -8 6 0 8 -7 5 -16 -3 -8 -2 -13 3 -10 10 7 33 -42
25 -55 -3 -5 -10 -6 -16 -3 -7 4 -8 2 -4 -5 4 -6 11 -9 16 -6 10 6 44 -54 36
-63 -3 -3 0 -15 7 -26 8 -12 18 -39 22 -61 5 -22 10 -47 12 -55 16 -79 26
-172 26 -257 l0 -101 -74 -76 c-40 -41 -77 -72 -82 -69 -6 3 -7 2 -4 -4 3 -5
-16 -31 -43 -57 -48 -46 -50 -47 -50 -23 0 14 12 40 28 58 15 18 21 29 14 25
-8 -5 -3 10 9 32 19 33 26 38 38 29 12 -10 12 -9 2 12 -10 18 -10 25 0 35 9 8
10 8 4 -3 -6 -10 -4 -12 4 -7 7 5 10 14 7 22 -3 7 1 19 8 26 7 7 11 19 8 27
-3 8 0 11 6 7 5 -3 10 0 9 7 -1 31 4 48 12 43 8 -6 14 19 25 109 13 107 15
174 6 180 -6 3 -10 18 -10 32 0 14 -10 58 -22 97 -12 39 -21 75 -20 79 1 4 -4
15 -12 23 -9 8 -13 21 -9 30 3 9 0 14 -8 12 -8 -2 -13 3 -11 10 1 6 -3 12 -9
12 -5 0 -8 4 -5 9 4 5 3 11 -2 13 -4 1 -23 23 -42 48 -19 25 -43 52 -53 60
-68 54 -72 59 -57 69 8 6 17 8 19 5 3 -3 -1 -9 -9 -14 -11 -7 -10 -9 7 -8 14
2 19 7 15 17 -3 9 -1 12 6 7 6 -3 13 -2 17 4 12 20 15 10 4 -12z m-803 4 c-3
-5 8 -8 24 -7 17 1 30 -2 30 -6 0 -10 -42 -34 -53 -31 -5 1 -6 -2 -3 -7 4 -5
-9 -22 -29 -37 -19 -14 -35 -31 -35 -36 0 -16 -43 -67 -51 -62 -5 3 -6 -1 -3
-9 3 -8 -2 -21 -10 -30 -8 -8 -12 -18 -8 -23 4 -5 -2 -2 -12 6 -18 14 -19 14
-9 -4 11 -21 -2 -66 -18 -66 -5 0 -8 -8 -7 -17 3 -28 -13 -93 -23 -93 -5 0 -7
-12 -3 -27 3 -16 2 -23 -3 -16 -4 6 -8 -37 -8 -97 0 -59 4 -106 8 -103 4 2 5
-6 2 -20 -4 -14 -2 -28 4 -31 6 -4 11 -17 11 -30 0 -12 10 -42 21 -66 l21 -44
-23 -19 c-13 -10 -41 -34 -62 -53 -37 -35 -37 -35 -45 -12 -5 13 -7 86 -5 163
1 77 3 154 3 170 0 24 3 27 11 15 7 -11 9 -6 7 20 -1 19 1 41 6 48 4 6 4 17 1
22 -3 6 -2 10 3 10 5 0 8 11 7 25 -2 14 1 25 6 25 6 0 7 5 4 10 -4 6 1 24 9
42 9 17 16 40 16 50 0 11 5 16 10 13 6 -3 10 5 10 19 0 38 61 162 73 149 4 -3
7 6 7 21 0 18 4 25 11 20 7 -4 10 -1 7 7 -6 16 44 93 70 108 21 13 35 14 28 3z
m-1864 -301 c4 -3 10 -24 13 -46 l7 -40 -177 -48 c-98 -26 -180 -46 -183 -43
-6 7 -31 141 -31 173 l-1 22 183 -6 c100 -3 185 -8 189 -12z m4888 8 c0 -6 -7
-52 -16 -101 -16 -86 -18 -89 -29 -62 -26 62 -43 68 -198 72 -78 2 -144 6
-146 8 -2 1 1 20 6 41 l9 38 139 5 c77 3 161 7 188 8 29 1 47 -2 47 -9z
m-2166 -35 c3 -8 2 -12 -4 -9 -6 3 -10 10 -10 16 0 14 7 11 14 -7z m-923 -36
c1 -7 2 -35 4 -63 2 -65 22 -149 46 -202 10 -24 19 -52 19 -63 0 -11 7 -23 15
-26 8 -4 12 -10 9 -15 -3 -5 0 -9 6 -9 6 0 8 -4 5 -10 -3 -5 -2 -10 3 -10 8 0
33 -42 37 -65 2 -9 -35 -11 -112 -6 -13 0 -23 8 -23 16 0 8 -4 15 -8 15 -7 0
-31 68 -40 115 -2 11 -4 74 -5 139 0 85 3 121 11 124 7 2 10 8 7 12 -8 13 5
60 16 60 5 0 10 -6 10 -12z m945 -35 c4 -21 6 -42 5 -47 -1 -4 3 -14 9 -21 30
-36 -14 -333 -47 -321 -7 3 -15 0 -19 -6 -4 -6 -3 -8 4 -4 14 9 10 -32 -6 -61
-16 -28 -23 -28 -52 -3 -13 11 -34 20 -47 20 -12 0 -23 4 -23 8 0 15 25 62 33
62 4 0 7 6 7 14 0 8 6 21 13 28 7 7 14 18 15 23 6 31 47 133 53 129 4 -2 5 5
2 16 -3 11 -1 26 4 33 6 6 11 37 12 67 3 51 7 101 10 108 5 12 20 -14 27 -45z
m694 -92 c0 -5 -11 -40 -25 -77 -14 -38 -33 -88 -41 -112 l-16 -43 -76 3 -77
3 -3 104 c-1 58 0 111 2 118 4 10 35 13 121 13 63 0 115 -4 115 -9z m1308 -3
c-3 -7 -22 -61 -44 -120 l-38 -108 -78 0 -78 0 0 120 0 120 121 0 c93 0 120
-3 117 -12z m-4693 -39 c0 -8 4 -20 8 -26 5 -7 5 -17 2 -23 -3 -5 -2 -10 4
-10 5 0 13 -12 18 -27 9 -25 6 -29 -26 -46 -19 -11 -40 -20 -46 -21 -6 -1 -27
-12 -46 -24 -35 -21 -70 -32 -39 -12 10 7 11 10 2 10 -7 0 -15 -7 -18 -15 -4
-8 -10 -12 -15 -9 -5 3 -9 0 -9 -6 0 -6 -4 -9 -9 -6 -5 4 -11 3 -13 -1 -6 -16
-68 -44 -80 -37 -7 4 -8 3 -4 -4 4 -7 3 -12 -3 -12 -5 0 -18 -3 -28 -7 -10 -3
-15 -3 -11 1 3 4 0 23 -8 42 -8 19 -12 34 -10 34 3 0 -1 19 -9 41 -18 51 -19
89 -2 90 6 1 29 3 50 5 20 2 52 10 70 18 17 9 41 17 52 19 11 2 33 9 49 16 16
6 31 10 33 7 3 -2 19 2 36 9 37 16 52 14 52 -6z m3935 -71 c0 -4 3 -7 8 -6 4
2 31 -8 61 -21 41 -17 51 -25 40 -33 -10 -7 -8 -8 9 -3 30 8 84 -4 76 -17 -4
-6 1 -8 13 -4 11 4 32 2 47 -3 24 -10 25 -13 14 -38 -7 -15 -18 -36 -26 -45
-8 -9 -11 -22 -7 -27 3 -6 1 -11 -6 -11 -7 0 -9 -3 -6 -6 3 -4 1 -16 -5 -28
-7 -11 -11 -24 -10 -28 1 -5 -2 -8 -8 -8 -13 0 -13 16 1 42 8 15 8 19 0 14
-14 -9 -14 0 1 27 10 20 10 21 -5 8 -15 -12 -17 -11 -17 3 0 25 -58 70 -90 71
-16 0 -27 -3 -24 -7 2 -4 -4 -11 -13 -17 -10 -6 -13 -11 -6 -11 15 0 65 -83
61 -101 -5 -23 -40 -51 -66 -54 -45 -5 -58 13 -57 82 1 34 -2 60 -6 57 -4 -2
-10 27 -14 64 -7 69 -9 80 -21 121 l-7 24 31 -19 c18 -10 32 -22 32 -26z
m-523 -140 c-3 -8 -6 -5 -6 6 -1 11 2 17 5 13 3 -3 4 -12 1 -19z m973 -58 l55
-29 -67 -1 c-38 0 -68 3 -68 8 0 17 13 52 19 52 3 -1 31 -14 61 -30z m-1030
-36 c11 -12 -4 -14 -108 -14 -105 0 -123 2 -131 18 -8 16 -1 17 109 14 88 -2
122 -7 130 -18z m-1949 -197 c10 -56 9 -60 -18 -95 -28 -37 -28 -37 -31 -216
l-3 -180 -29 -32 c-50 -57 -48 -140 5 -209 16 -22 25 -47 25 -69 0 -20 -2 -36
-4 -36 -3 0 -38 12 -78 26 -108 39 -331 154 -403 207 -17 13 -17 17 -6 31 13
15 17 13 44 -20 17 -20 45 -43 63 -50 117 -49 271 40 304 175 16 69 1 120 -50
164 l-40 34 80 75 80 76 0 83 c0 70 4 90 22 119 l23 35 2 -30 c2 -16 8 -56 14
-88z m-1693 -30 l132 -134 0 -86 0 -87 -79 0 -79 0 -4 66 -4 67 -70 67 c-47
44 -82 69 -104 73 -52 11 -386 8 -416 -3 -31 -12 -133 -102 -151 -134 -9 -15
-12 -107 -13 -334 l0 -313 45 -48 c25 -27 63 -61 84 -75 l39 -27 219 3 220 3
64 59 c75 69 88 93 89 164 l0 52 80 0 80 0 0 -86 0 -86 -122 -126 c-68 -70
-130 -132 -138 -139 -11 -9 -89 -12 -289 -13 l-274 0 -139 137 -138 137 0 366
0 366 133 132 134 132 284 0 285 0 132 -133z m5283 1 l128 -133 1 -87 0 -88
-80 0 -80 0 0 55 c0 30 -5 65 -11 78 -14 30 -119 124 -154 137 -29 11 -363 14
-415 4 -36 -8 -143 -101 -166 -145 -11 -23 -14 -85 -14 -321 0 -261 2 -297 18
-324 19 -33 104 -114 139 -133 14 -7 94 -11 231 -11 l209 0 39 28 c21 16 58
50 82 75 40 45 42 49 42 112 l0 65 80 0 80 0 0 -91 0 -91 -132 -134 -133 -134
-280 0 -279 0 -138 138 -138 138 0 359 0 360 137 137 138 138 283 0 284 0 129
-132z m-906 96 c-8 -9 -15 -20 -15 -25 0 -5 -5 -9 -11 -9 -5 0 -7 5 -4 10 3 6
4 10 1 10 -3 0 -10 -10 -17 -21 -9 -17 -8 -20 3 -14 7 4 -12 -18 -42 -50 -30
-32 -62 -66 -72 -76 -15 -16 -16 -14 -14 39 6 129 6 128 16 112 5 -8 10 -10
10 -5 0 6 20 10 45 9 26 0 50 5 56 13 6 7 15 10 20 7 5 -3 12 2 15 10 3 9 10
13 15 10 5 -3 2 -12 -6 -20z m-2843 -11 c2 -16 1 -53 0 -83 l-4 -55 -481 -450
-482 -450 483 -5 484 -5 0 -75 0 -75 -601 -3 -602 -2 3 83 3 83 474 454 473
455 -476 3 -476 2 0 75 0 75 599 0 600 0 3 -27z m1268 -53 l0 -80 -334 0
c-183 0 -349 -3 -367 -7 -24 -4 -56 -28 -106 -78 l-73 -71 0 -102 0 -102 375
0 375 0 0 -85 0 -85 -375 0 -375 0 0 -110 0 -111 58 -63 c31 -34 66 -69 77
-77 16 -11 89 -15 383 -17 l362 -3 0 -79 0 -80 -404 0 -403 0 -127 123 -126
122 0 370 0 370 125 123 125 122 405 0 405 0 0 -80z m1238 -1 l-3 -80 -338 1
c-386 1 -388 0 -464 -83 -42 -46 -43 -48 -43 -117 0 -70 0 -72 44 -118 l45
-47 318 -3 318 -3 98 -92 97 -92 0 -130 0 -131 -128 -127 -129 -127 -401 0
-402 0 0 85 0 85 368 0 c407 0 378 -4 455 69 43 41 62 95 52 157 -6 45 -50
110 -88 131 -16 9 -105 12 -317 13 l-295 0 -110 104 -110 103 -3 117 -4 117
124 124 123 125 398 0 398 0 -3 -81z m-3756 -157 c13 -6 38 -13 56 -14 l34 -3
-69 -59 -68 -59 -6 77 c-4 42 -9 80 -13 83 -3 3 -1 13 6 20 10 12 14 11 24 -9
7 -13 23 -29 36 -36z m674 -54 c0 -45 -16 -69 -28 -40 -4 9 -7 32 -7 50 -1 24
3 32 17 32 14 0 18 -9 18 -42z m2666 -44 c46 -42 85 -80 86 -85 2 -5 -8 -9
-23 -9 -17 0 -38 12 -59 35 -29 30 -40 35 -80 35 -39 0 -52 -6 -85 -35 -34
-31 -45 -35 -91 -35 -41 0 -55 4 -71 23 -30 36 -24 73 19 112 37 35 38 35 129
35 l93 0 82 -76z m317 62 c15 -18 1 -50 -29 -66 -42 -22 -83 -12 -135 35 l-50
44 101 1 c77 0 104 -4 113 -14z m121 0 c0 -34 -34 -158 -47 -171 -12 -12 -18
-12 -48 2 -40 19 -44 29 -15 38 31 10 68 61 75 105 4 25 12 40 21 40 8 0 14
-6 14 -14z m-1840 -8 c0 -10 2 -10 8 -1 5 7 37 11 94 10 81 -1 87 -2 97 -25 9
-17 8 -21 -1 -16 -8 5 -9 2 -5 -10 4 -10 7 -22 7 -27 0 -6 5 -7 12 -3 8 5 9 2
5 -10 -4 -10 -7 -23 -7 -29 0 -9 -40 -12 -140 -12 -128 -1 -138 0 -125 15 8 9
15 22 15 28 0 7 5 12 11 12 5 0 7 5 4 10 -9 14 4 70 16 70 5 0 9 -6 9 -12z
m530 1 c0 -4 7 -6 17 -5 12 1 19 -13 29 -54 7 -30 10 -58 7 -63 -2 -4 -1 -7 4
-6 18 3 34 -1 29 -9 -5 -9 35 -9 50 1 7 4 9 -5 6 -23 -2 -18 -9 -27 -15 -23
-6 3 -7 1 -3 -6 4 -6 12 -8 18 -5 7 5 9 1 5 -9 -3 -9 -2 -19 3 -22 6 -4 10
-17 10 -31 0 -14 4 -22 10 -19 6 3 10 -1 10 -10 0 -10 4 -13 13 -8 6 4 3 -6
-7 -22 -24 -37 -42 -55 -54 -55 -5 0 -16 -8 -23 -19 -8 -10 -27 -22 -42 -25
l-29 -7 4 60 c1 32 0 57 -4 54 -5 -2 -8 0 -8 6 0 5 5 13 10 16 13 8 13 55 -1
55 -6 0 -9 5 -7 12 2 6 -10 26 -26 44 -33 34 -107 56 -173 51 -18 -2 -33 -1
-34 2 0 3 -2 14 -4 24 -4 19 12 74 26 92 8 11 179 15 179 4z m1447 -31 c-3 -7
-5 -2 -5 12 0 14 2 19 5 13 2 -7 2 -19 0 -25z m-2119 -58 c-2 -34 -5 -40 -25
-40 -19 0 -23 5 -23 31 0 17 4 28 10 24 6 -3 10 1 10 9 0 9 7 16 15 16 12 0
15 -10 13 -40z m2587 -97 l48 -43 -42 -53 c-23 -30 -50 -62 -61 -72 -20 -18
-20 -17 -20 104 0 137 -4 134 75 64z m-3201 11 c35 -34 9 -126 -49 -169 -64
-50 -140 -41 -169 18 l-16 32 48 41 47 42 22 -24 c40 -44 107 -24 76 22 -28
43 6 74 41 38z m2728 -140 l-4 -45 -22 23 c-23 25 -23 35 2 55 26 19 27 17 24
-33z m-3612 -97 c-41 -41 -77 -72 -80 -69 -5 4 140 141 150 141 3 1 -29 -32
-70 -72z m2525 -18 c45 -46 78 -65 132 -78 l38 -8 -30 -12 c-57 -24 -137 1
-169 52 -16 26 -29 87 -18 87 4 0 26 -18 47 -41z m-95 -78 c63 -124 235 -146
337 -45 l44 45 127 -3 127 -3 -80 -38 c-44 -22 -134 -57 -200 -79 -101 -35
-138 -42 -235 -48 -79 -4 -123 -12 -140 -23 -41 -26 -98 -32 -120 -12 -10 9
-36 19 -57 22 l-38 5 105 108 c58 59 106 109 107 109 2 1 12 -17 23 -38z
m-856 -179 c-43 -3 -48 -1 -90 45 -38 42 -44 54 -44 93 l0 45 90 -90 91 -90
-47 -3z m592 162 c-3 -19 -109 -105 -124 -99 -7 2 -11 1 -7 -4 3 -5 -7 -18
-22 -28 -21 -15 -45 -19 -95 -19 -39 1 -64 -3 -60 -8 3 -6 -8 0 -25 12 -17 12
-36 22 -42 22 -6 0 -18 11 -26 24 -9 13 -25 26 -36 29 -13 4 -18 10 -13 18 4
7 3 10 -4 5 -6 -4 -24 6 -40 21 -15 15 -20 22 -10 14 17 -13 18 -13 13 1 -5
13 21 15 227 17 128 1 234 3 235 5 8 8 30 1 29 -10z m-1544 -90 c-2 -16 -9
-40 -15 -54 -11 -23 -17 -25 -72 -22 -33 2 -62 5 -64 8 -2 2 15 35 38 74 l42
70 37 -24 c31 -20 36 -29 34 -52z m2628 28 c0 -27 -34 -72 -45 -60 -3 2 -7 18
-11 34 -5 25 -2 32 18 41 34 17 38 16 38 -15z m-2465 -79 c47 -23 44 -33 -11
-33 -38 0 -45 3 -40 16 3 9 6 20 6 25 0 12 4 12 45 -8z m2295 2 c0 -10 -10
-15 -32 -14 l-33 1 30 13 c17 8 31 14 33 15 1 0 2 -7 2 -15z m-2003 -134 c0
-11 -5 -18 -9 -15 -4 3 -5 11 -1 19 7 21 12 19 10 -4z m1289 -137 c-3 -48 -9
-90 -12 -95 -3 -5 -24 -9 -47 -8 -23 0 -36 3 -29 6 24 9 42 62 42 123 0 58 1
60 26 60 l27 0 -7 -86z m-1031 -82 c-2 -2 -31 -1 -64 3 l-61 7 0 61 0 61 65
-64 c35 -35 63 -66 60 -68z m760 -32 c-26 -11 -105 -12 -105 -1 0 4 28 9 63 9
43 1 56 -2 42 -8z m-6905 -541 l0 -329 480 0 480 0 2 331 3 330 118 2 117 2 0
-797 0 -798 -120 0 -120 0 0 355 0 355 -480 0 -480 0 0 -355 0 -355 -120 0
-120 0 0 793 c0 437 2 796 4 798 2 2 56 3 120 1 l116 -3 0 -330z m1670 -242
c0 -358 4 -586 10 -609 7 -24 32 -58 76 -100 106 -103 85 -98 421 -98 179 0
302 4 319 10 36 14 152 116 175 155 18 28 19 63 19 623 l0 592 105 0 105 0 0
-631 c0 -387 -4 -637 -10 -648 -5 -10 -79 -84 -164 -165 l-155 -146 -392 0
-391 0 -159 157 -159 157 0 640 0 641 100 -3 100 -3 0 -572z m9593 394 l167
-167 0 -445 0 -444 -177 -177 -178 -178 -542 0 -543 0 0 795 0 795 528 2 c290
2 539 -1 553 -5 14 -4 101 -83 192 -176z m1537 165 c8 -6 86 -84 173 -172
l157 -161 0 -624 0 -624 -105 3 -105 3 0 280 0 279 -510 0 -510 0 0 -280 0
-280 -105 0 -105 0 0 604 c0 333 4 615 9 628 5 13 81 97 168 188 l160 165 359
5 c370 5 389 5 414 -14z m-8348 -155 l173 -169 3 -257 3 -258 -171 -172 -171
-172 124 -194 124 -194 -111 -3 c-97 -2 -112 0 -124 15 -7 10 -61 96 -119 191
l-107 172 -345 -2 -346 -3 -3 -187 -2 -188 -105 0 -105 0 0 795 0 795 554 0
555 0 173 -169z m1720 32 c75 -76 141 -148 147 -160 6 -12 11 -75 11 -147 l0
-126 -105 0 -105 0 0 85 c0 49 -6 99 -14 118 -15 36 -118 131 -160 147 -16 6
-139 10 -308 10 -229 0 -286 -3 -312 -15 -17 -8 -68 -51 -111 -95 l-80 -80 -3
-368 c-2 -202 -1 -381 3 -397 7 -38 142 -187 187 -206 26 -11 110 -14 408 -14
l375 0 3 138 3 137 -301 0 -300 0 0 105 0 105 410 0 410 0 0 -345 0 -345 -547
0 -547 0 -173 173 -173 173 0 444 0 445 177 177 178 178 395 0 395 0 137 -137z
m658 -193 l0 -330 480 0 480 0 0 330 0 330 120 0 120 0 0 -795 0 -795 -120 0
-120 0 0 355 0 355 -480 0 -480 0 0 -355 0 -355 -120 0 -120 0 0 795 0 795
120 0 120 0 0 -330z m2728 156 l172 -173 0 -622 0 -621 -105 0 -105 0 0 280 0
280 -510 0 -510 0 0 -280 0 -280 -105 0 -105 0 0 613 c0 551 2 615 16 637 9
14 87 96 173 183 l156 157 375 0 376 0 172 -174z m-2798 -1796 c25 -25 25 -44
3 -70 -10 -11 -18 -37 -20 -57 -3 -46 -24 -63 -76 -63 -34 0 -38 -2 -27 -15 7
-8 27 -15 44 -15 49 0 74 -10 79 -31 10 -37 -18 -49 -109 -49 -82 0 -85 1
-122 34 l-37 34 0 86 c0 80 2 86 29 115 48 50 197 70 236 31z m229 10 c52 -7
71 -15 95 -40 30 -29 31 -34 31 -116 l0 -86 -37 -34 c-36 -33 -41 -34 -115
-34 -125 0 -123 -1 -123 91 0 60 -4 81 -14 85 -14 5 -14 10 0 92 8 51 43 60
163 42z m489 -3 c13 -9 17 -77 4 -77 -15 0 -132 -118 -132 -133 0 -11 17 -17
64 -22 52 -5 65 -10 69 -26 10 -39 -17 -49 -136 -49 -141 0 -157 4 -157 39 0
19 17 44 65 91 36 35 65 68 65 72 0 4 -10 8 -23 8 -13 0 -27 3 -31 8 -4 4 -11
7 -14 8 -4 0 -19 6 -34 12 -39 16 -37 49 5 67 34 15 231 16 255 2z m-4054 -36
c48 -49 48 -84 -1 -89 -24 -2 -33 1 -33 11 0 8 -7 20 -15 27 -20 16 -96 14
-107 -3 -4 -6 -8 -38 -8 -69 0 -63 13 -78 67 -78 34 0 46 8 62 38 7 13 21 22
36 22 47 0 41 -68 -11 -109 -21 -17 -40 -21 -96 -21 -66 0 -72 2 -104 34 -33
33 -34 36 -34 115 0 79 1 82 36 121 35 39 38 40 103 40 65 0 68 -1 105 -39z
m479 30 c37 -1 38 -2 35 -33 -3 -32 -4 -33 -65 -41 -35 -5 -63 -13 -63 -18 0
-5 3 -8 8 -7 4 1 26 -1 50 -5 40 -7 42 -9 42 -41 0 -30 -4 -34 -31 -40 -17 -3
-45 -6 -61 -6 -57 0 -12 -27 57 -35 63 -6 65 -8 65 -35 0 -34 -17 -40 -121
-40 l-77 0 -36 40 c-35 38 -36 43 -36 115 0 69 2 77 31 109 31 36 61 45 129
40 19 -1 52 -3 73 -3z m352 -22 c27 -24 35 -39 35 -65 0 -31 -3 -34 -28 -34
-21 0 -32 7 -40 25 -6 14 -17 25 -24 26 -7 0 -25 2 -40 4 -41 5 -60 -15 -65
-72 -7 -63 17 -93 72 -93 30 0 39 5 53 30 13 23 23 30 42 28 40 -5 40 -52 -1
-94 -31 -32 -36 -34 -105 -34 -71 0 -72 0 -109 41 l-37 41 4 80 c3 77 4 81 40
114 35 31 43 34 103 34 58 0 68 -3 100 -31z m373 23 c28 -2 32 -5 32 -30 0
-22 -17 -45 -70 -99 -38 -38 -70 -75 -70 -80 0 -14 35 -23 93 -23 45 0 47 -1
47 -29 0 -21 -6 -30 -22 -35 -30 -8 -232 -8 -252 0 -35 13 -17 55 54 131 39
40 68 78 65 83 -4 6 -18 10 -33 10 -15 0 -44 3 -64 6 -34 6 -38 10 -38 35 0
27 2 28 58 31 60 3 144 3 200 0z m179 -12 c11 -90 12 -90 52 -90 43 0 60 15
70 62 8 39 29 53 65 44 26 -6 28 -10 21 -44 -4 -20 -13 -49 -22 -65 -13 -25
-13 -31 1 -52 19 -29 22 -131 4 -137 -32 -11 -56 4 -63 40 -9 50 -21 62 -61
62 -42 0 -64 -23 -64 -66 0 -32 -2 -34 -34 -34 -30 0 -34 4 -40 31 -8 40 -8
187 0 227 6 30 23 42 54 38 8 -1 16 -8 17 -16z m871 14 c49 -6 52 -9 52 -34 0
-21 -17 -45 -70 -99 -38 -38 -70 -74 -70 -80 0 -9 29 -15 110 -23 21 -3 25 -8
25 -33 l0 -30 -120 -3 c-149 -3 -165 0 -165 35 0 20 18 45 68 96 64 65 66 69
48 83 -11 8 -34 14 -52 14 -50 0 -64 9 -64 40 0 24 5 29 28 33 46 7 154 7 210
1z m2119 -28 c35 -32 37 -38 41 -105 2 -39 1 -91 -2 -116 -7 -41 -10 -45 -35
-45 -23 0 -29 5 -37 38 l-9 37 -60 0 -60 0 -3 -37 c-3 -36 -5 -38 -38 -38
l-34 0 0 113 c1 120 5 134 57 169 19 12 47 18 86 18 51 0 61 -4 94 -34z m342
-1 c46 -42 56 -86 45 -195 -6 -68 -7 -70 -34 -70 -35 0 -40 13 -40 108 -1 99
-11 114 -77 110 l-48 -3 -6 -105 c-4 -58 -7 -106 -8 -107 0 -2 -14 -3 -30 -3
-26 0 -29 4 -35 44 -12 77 -5 226 11 242 10 10 39 14 99 14 82 0 85 -1 123
-35z m509 29 c16 -5 22 -14 22 -34 0 -29 -18 -40 -72 -40 -33 0 -58 -9 -58
-21 0 -5 3 -8 8 -7 4 1 26 -1 50 -5 41 -7 43 -9 40 -40 -3 -30 -7 -33 -50 -41
-60 -12 -66 -36 -9 -36 59 0 91 -15 91 -44 0 -28 -28 -36 -124 -36 -108 0
-145 41 -146 161 l0 77 40 36 c38 34 43 36 113 36 39 0 82 -3 95 -6z m548 -36
c28 -31 34 -46 34 -82 0 -28 -7 -52 -20 -69 -21 -27 -26 -62 -10 -72 23 -14 9
-35 -24 -35 -25 0 -38 6 -50 25 -13 20 -25 25 -61 25 -38 0 -44 -3 -47 -22 -2
-18 -11 -24 -35 -26 l-33 -3 -1 53 c-2 152 3 233 14 241 7 4 54 6 105 5 l94
-3 34 -37z m348 36 c9 -4 16 -18 16 -34 0 -30 -15 -40 -58 -40 -15 0 -38 -3
-50 -7 -29 -7 -10 -23 29 -23 40 0 63 -22 56 -52 -6 -22 -14 -27 -59 -34 -29
-4 -56 -7 -60 -6 -13 3 -9 -18 5 -23 6 -2 39 -6 72 -9 33 -3 61 -5 63 -6 9 -1
0 -59 -10 -63 -7 -2 -50 -5 -95 -6 -81 -2 -83 -1 -120 32 l-37 35 0 85 c0 78
2 89 25 113 13 14 33 30 44 34 23 10 156 13 179 4z m338 -32 c32 -32 33 -34
32 -119 -1 -86 -1 -86 -37 -120 -32 -29 -44 -33 -89 -33 -80 0 -98 8 -98 40 0
23 5 29 31 34 17 3 47 6 65 6 40 0 54 21 54 77 0 60 -16 75 -75 71 -47 -3 -50
-5 -55 -33 -4 -25 -10 -30 -35 -30 l-30 0 -3 67 c-3 79 -6 77 120 75 85 -2 89
-3 120 -35z m342 28 c28 -10 34 -38 14 -58 -7 -7 -30 -12 -52 -13 -23 0 -50
-4 -61 -8 -16 -6 -8 -11 35 -20 72 -16 100 -42 100 -95 0 -46 -4 -53 -44 -84
-23 -18 -42 -22 -100 -22 -99 0 -116 6 -116 41 0 30 12 35 99 41 52 4 49 24
-4 31 -60 6 -105 46 -105 93 0 35 31 81 64 94 29 12 139 12 170 0z m-7870 -31
c3 -17 6 -62 6 -98 0 -39 5 -72 12 -79 7 -7 33 -12 59 -12 56 0 59 5 59 103 0
100 6 117 40 117 l27 0 6 -99 c3 -55 8 -105 12 -110 9 -15 90 -14 103 2 6 7
13 56 14 108 l3 94 30 0 30 0 3 -111 3 -110 -38 -38 c-38 -37 -38 -37 -103
-32 -80 7 -97 7 -188 0 l-73 -6 -35 37 -34 36 0 115 0 114 29 0 c24 0 29 -5
35 -31z m546 -22 c0 -63 24 -97 69 -97 41 0 64 31 69 95 4 52 6 55 32 55 33 0
40 -14 40 -85 0 -49 -3 -56 -49 -105 -27 -29 -52 -63 -55 -75 -3 -13 -11 -25
-18 -28 -22 -8 -58 11 -58 31 0 10 -22 42 -50 70 -47 49 -50 55 -50 106 0 73
6 86 41 86 28 0 29 -1 29 -53z m704 1 c8 -68 8 -133 0 -192 -6 -44 -8 -46 -40
-46 l-34 0 0 145 0 145 34 0 c33 0 33 -1 40 -52z m1556 -92 l0 -144 -24 -4
c-46 -9 -51 3 -53 134 -4 151 -2 158 43 158 l34 0 0 -144z m714 122 c3 -13 6
-57 6 -98 0 -46 5 -81 12 -88 16 -16 93 -15 106 1 6 7 13 56 14 108 l3 94 29
3 c16 2 32 -2 37 -10 5 -7 8 -49 8 -93 -1 -107 3 -115 57 -115 39 0 46 3 55
27 5 15 7 44 4 64 -4 21 -3 58 0 84 7 44 9 46 39 43 l31 -3 3 -112 3 -111 -38
-37 c-37 -36 -38 -36 -103 -31 -80 7 -97 7 -187 0 -71 -6 -72 -5 -110 29 -38
35 -38 36 -39 119 -2 128 3 148 36 148 20 0 29 -6 34 -22z m550 6 c9 -24 7
-247 -3 -262 -5 -8 -21 -12 -37 -10 l-29 3 -3 129 c-1 72 0 136 2 143 8 19 63
16 70 -3z m1910 -53 c3 -38 3 -103 -1 -145 l-6 -76 -32 0 c-28 0 -33 4 -39 31
-3 17 -6 69 -6 114 0 45 3 97 6 114 6 27 11 31 39 31 l32 0 7 -69z m2070 38
c3 -17 6 -43 6 -57 0 -35 27 -62 63 -62 42 0 67 26 67 69 0 63 9 81 41 81 l29
0 0 -71 0 -70 -50 -53 c-28 -30 -50 -62 -50 -74 0 -18 -6 -22 -35 -22 -29 0
-35 4 -35 21 0 11 -22 44 -49 72 -54 57 -54 57 -52 140 1 56 2 57 30 57 24 0
29 -5 35 -31z"/>
<path d="M8802 11138 c-19 -19 -15 -26 37 -87 26 -31 65 -82 85 -113 20 -32
42 -58 49 -58 7 0 27 26 45 58 18 31 55 82 83 112 51 56 57 75 27 94 -13 8
-23 5 -43 -14 -33 -31 -79 -104 -96 -152 -12 -36 -29 -51 -29 -27 0 23 -51
117 -85 157 -38 44 -53 50 -73 30z"/>
<path d="M8613 10725 c0 -8 4 -12 9 -9 5 3 6 10 3 15 -9 13 -12 11 -12 -6z"/>
<path d="M8680 10560 c-9 -6 -10 -10 -3 -10 6 0 15 5 18 10 8 12 4 12 -15 0z"/>
<path d="M6840 10821 c0 -10 19 -25 25 -20 1 2 -3 10 -11 17 -8 7 -14 8 -14 3z"/>
<path d="M6669 10653 c-8 -9 -9 -14 -2 -10 6 4 13 1 16 -5 3 -7 4 -3 4 10 -1
26 -1 26 -18 5z"/>
<path d="M9217 10737 c-78 -63 -33 -187 68 -187 50 0 105 53 105 100 0 91
-103 144 -173 87z"/>
<path d="M6219 10768 c-58 -15 -98 -97 -75 -153 30 -70 124 -99 174 -52 14 12
21 15 17 7 -7 -12 -6 -13 7 -3 8 7 19 9 24 5 4 -4 3 0 -3 8 -8 10 -9 21 -3 30
27 42 -11 150 -55 156 -6 1 -19 4 -30 7 -11 2 -36 0 -56 -5z"/>
<path d="M6121 10694 c0 -11 3 -14 6 -6 3 7 2 16 -1 19 -3 4 -6 -2 -5 -13z"/>
<path d="M6560 10316 c0 -2 6 -9 13 -15 10 -8 14 -7 14 4 0 8 -6 15 -14 15 -7
0 -13 -2 -13 -4z"/>
<path d="M6402 10268 c-20 -20 -14 -37 32 -86 46 -50 116 -148 116 -163 0 -27
34 -2 66 48 20 32 59 83 86 115 43 49 48 59 38 77 -6 12 -17 21 -25 21 -22 0
-85 -80 -117 -150 l-30 -65 -29 64 c-31 69 -93 151 -113 151 -6 0 -17 -5 -24
-12z"/>
<path d="M6905 10010 c-3 -5 -1 -10 4 -10 6 0 11 5 11 10 0 6 -2 10 -4 10 -3
0 -8 -4 -11 -10z"/>
<path d="M6821 9928 c-14 -23 -14 -23 8 -4 22 20 25 26 13 26 -4 0 -13 -10
-21 -22z"/>
<path d="M8576 9662 c-3 -5 1 -9 9 -9 8 0 12 4 9 9 -3 4 -7 8 -9 8 -2 0 -6 -4
-9 -8z"/>
<path d="M8573 9535 c0 -8 3 -13 5 -10 3 3 12 -1 21 -7 10 -8 9 -4 -3 10 -23
26 -23 26 -23 7z"/>
<path d="M8559 9473 c-13 -16 -12 -17 4 -4 9 7 17 15 17 17 0 8 -8 3 -21 -13z"/>
<path d="M9264 9871 c7 -10 31 -9 42 2 4 4 -5 7 -20 7 -15 0 -25 -4 -22 -9z"/>
<path d="M6106 10072 c-3 -5 1 -9 9 -9 8 0 12 4 9 9 -3 4 -7 8 -9 8 -2 0 -6
-4 -9 -8z"/>
<path d="M6355 9690 c-3 -6 1 -7 9 -4 18 7 21 14 7 14 -6 0 -13 -4 -16 -10z"/>
<path d="M6243 9575 c0 -8 4 -12 9 -9 5 3 6 10 3 15 -9 13 -12 11 -12 -6z"/>
<path d="M8879 9563 c-13 -16 -12 -17 4 -4 16 13 21 21 13 21 -2 0 -10 -8 -17
-17z"/>
<path d="M8970 9458 c0 -5 -4 -7 -8 -4 -12 7 -52 -31 -52 -49 0 -23 38 -55 65
-55 45 0 74 83 33 96 -10 3 -16 9 -14 13 3 4 -1 8 -9 8 -8 0 -15 -4 -15 -9z"/>
<path d="M8755 9441 c-3 -5 -2 -12 3 -15 5 -3 9 1 9 9 0 17 -3 19 -12 6z"/>
<path d="M9092 9410 c-18 -11 -36 -28 -39 -38 -8 -21 -45 -76 -55 -80 -4 -2
-4 -10 -1 -19 4 -11 2 -14 -5 -9 -8 5 -12 0 -12 -13 0 -12 -5 -21 -11 -21 -5
0 -7 5 -4 10 3 6 2 10 -4 10 -8 0 -24 32 -26 52 0 4 -8 17 -17 28 -10 11 -18
23 -18 26 0 15 -67 59 -90 59 -24 1 -26 -2 -23 -35 4 -53 6 -59 13 -55 8 5 76
-75 91 -109 7 -14 16 -23 20 -20 8 5 12 -7 11 -31 -1 -5 10 -18 23 -28 20 -15
28 -15 45 -5 11 7 20 19 20 27 0 21 42 80 61 86 9 3 16 13 15 23 0 10 5 16 13
14 9 -2 11 3 7 13 -3 9 -2 13 4 10 6 -3 13 1 16 9 3 9 10 13 15 10 5 -3 9 7
10 23 0 25 1 26 10 8 8 -17 9 -16 3 5 -3 14 -6 30 -6 37 -1 7 -4 12 -7 11 -20
-2 -31 3 -26 12 9 14 5 13 -33 -10z"/>
<path d="M8965 9331 c-3 -5 -2 -12 3 -15 5 -3 9 1 9 9 0 17 -3 19 -12 6z"/>
<path d="M9160 9237 c0 -2 6 -10 14 -16 11 -9 16 -9 22 1 4 7 4 10 -1 6 -4 -4
-14 -3 -22 3 -7 6 -13 9 -13 6z"/>
<path d="M6654 9302 c3 -5 0 -12 -6 -15 -7 -2 -10 -7 -7 -11 3 -4 12 0 18 8 9
11 9 16 0 22 -7 4 -9 3 -5 -4z"/>
<path d="M6821 9053 c-7 -8 -11 -16 -8 -19 2 -2 10 2 17 11 17 20 9 27 -9 8z"/>
<path d="M8614 8990 c-64 -26 -84 -115 -38 -169 63 -75 184 -30 184 69 0 75
-77 128 -146 100z"/>
<path d="M9241 8987 c-39 -19 -65 -63 -64 -104 1 -30 9 -45 38 -71 33 -31 42
-34 79 -29 108 15 132 152 36 202 -35 18 -57 19 -89 2z"/>
<path d="M6555 8760 c3 -5 8 -10 11 -10 2 0 4 5 4 10 0 6 -5 10 -11 10 -5 0
-7 -4 -4 -10z"/>
<path d="M6676 8655 c4 -8 11 -15 16 -15 6 0 5 6 -2 15 -7 8 -14 15 -16 15 -2
0 -1 -7 2 -15z"/>
<path d="M6549 8587 c-20 -15 -58 -74 -41 -64 7 5 12 3 12 -6 0 -52 85 -43
107 11 8 19 9 31 3 27 -5 -3 -10 1 -10 10 0 9 -4 14 -9 10 -5 -3 -12 -1 -16 4
-3 6 -13 7 -22 4 -11 -4 -14 -3 -9 5 9 15 5 15 -15 -1z"/>
<path d="M6655 8261 c-3 -5 -2 -12 3 -15 5 -3 9 1 9 9 0 17 -3 19 -12 6z"/>
<path d="M5878 8453 c7 -3 16 -2 19 1 4 3 -2 6 -13 5 -11 0 -14 -3 -6 -6z"/>
<path d="M8725 8141 c-3 -5 -2 -12 3 -15 5 -3 9 1 9 9 0 17 -3 19 -12 6z"/>
<path d="M7222 7820 c0 -14 2 -19 5 -12 2 6 2 18 0 25 -3 6 -5 1 -5 -13z"/>
<path d="M8627 7904 c6 -15 23 -19 23 -5 0 5 -7 11 -14 14 -10 4 -13 1 -9 -9z"/>
<path d="M8745 6760 c-3 -5 -1 -10 4 -10 6 0 11 5 11 10 0 6 -2 10 -4 10 -3 0
-8 -4 -11 -10z"/>
<path d="M9720 7070 c-12 -12 -20 -33 -20 -55 0 -91 124 -102 146 -13 5 22 0
33 -24 58 -36 35 -73 39 -102 10z"/>
<path d="M5357 7129 c7 -7 15 -10 18 -7 3 3 -2 9 -12 12 -14 6 -15 5 -6 -5z"/>
<path d="M5310 7119 c0 -5 5 -7 10 -4 6 3 10 8 10 11 0 2 -4 4 -10 4 -5 0 -10
-5 -10 -11z"/>
<path d="M5404 7101 c20 -22 26 -25 26 -13 0 4 -10 13 -22 21 -23 14 -23 14
-4 -8z"/>
<path d="M4670 7100 c8 -5 20 -10 25 -10 6 0 3 5 -5 10 -8 5 -19 10 -25 10 -5
0 -3 -5 5 -10z"/>
<path d="M5280 7099 c0 -5 5 -7 10 -4 6 3 10 8 10 11 0 2 -4 4 -10 4 -5 0 -10
-5 -10 -11z"/>
<path d="M5262 7060 c0 -14 2 -19 5 -12 2 6 2 18 0 25 -3 6 -5 1 -5 -13z"/>
<path d="M4915 7035 c-59 -58 -2 -160 78 -140 49 13 71 74 46 129 -20 42 -87
49 -124 11z"/>
<path d="M5338 6903 c7 -3 16 -2 19 1 4 3 -2 6 -13 5 -11 0 -14 -3 -6 -6z"/>
<path d="M9517 6589 c7 -7 15 -10 18 -7 3 3 -2 9 -12 12 -14 6 -15 5 -6 -5z"/>
<path d="M10378 6713 c7 -3 16 -2 19 1 4 3 -2 6 -13 5 -11 0 -14 -3 -6 -6z"/>
<path d="M8300 6363 c0 -19 21 -27 33 -13 9 10 9 11 -2 5 -8 -4 -17 -2 -22 6
-6 9 -9 10 -9 2z"/>
<path d="M6074 6412 c3 -5 0 -13 -6 -15 -9 -4 -10 -6 -1 -6 17 -1 25 16 12 25
-7 4 -9 3 -5 -4z"/>
<path d="M7638 5933 c-13 -7 -18 -12 -13 -13 6 0 -5 -9 -23 -20 -18 -11 -37
-18 -41 -16 -4 3 -17 -1 -27 -10 -18 -14 -17 -14 6 -3 21 10 20 6 -12 -29 -21
-23 -38 -47 -38 -53 0 -8 -6 -7 -17 2 -15 12 -15 12 -6 -4 7 -14 5 -34 -8 -73
-19 -56 -22 -167 -5 -156 5 3 7 -4 4 -16 -3 -12 0 -29 8 -39 7 -10 14 -26 14
-36 0 -10 4 -16 9 -13 4 3 13 -6 20 -20 9 -20 9 -24 -1 -18 -9 6 -9 3 1 -9 7
-9 18 -14 25 -10 6 4 5 0 -2 -9 -10 -13 -10 -18 -1 -24 7 -4 9 -3 6 3 -4 6 0
13 8 17 8 3 15 1 15 -5 0 -5 11 -15 25 -21 23 -10 23 -12 7 -25 -15 -13 -15
-13 4 -4 16 8 36 5 80 -10 41 -15 75 -20 111 -17 35 3 50 1 46 -6 -4 -6 3 -3
15 7 11 11 26 16 31 12 6 -3 11 -2 11 2 0 15 86 56 100 48 9 -5 11 -4 6 4 -9
14 32 74 45 66 5 -4 6 0 3 8 -3 8 2 20 10 27 9 7 13 16 10 21 -3 5 -1 9 4 9 5
0 9 6 10 13 8 65 13 104 16 113 6 17 -21 123 -39 150 -9 13 -13 29 -10 35 4 5
1 8 -6 7 -6 -2 -14 3 -17 11 -3 9 0 11 9 6 8 -5 11 -4 6 1 -5 5 -12 9 -15 10
-20 2 -41 17 -36 25 3 5 2 8 -3 7 -10 -4 -58 33 -62 47 -1 6 -5 12 -8 15 -4 3
-3 -1 1 -8 6 -10 1 -11 -21 -6 -15 4 -32 10 -38 13 -19 12 -194 7 -217 -6z"/>
<path d="M7960 5940 c-9 -6 -10 -10 -3 -10 6 0 15 5 18 10 8 12 4 12 -15 0z"/>
<path d="M7425 5240 c10 -11 20 -20 23 -20 3 0 -3 9 -13 20 -10 11 -20 20 -23
20 -3 0 3 -9 13 -20z"/>
<path d="M8076 5228 c3 -5 10 -6 15 -3 13 9 11 12 -6 12 -8 0 -12 -4 -9 -9z"/>
<path d="M8005 5170 c-3 -6 1 -7 9 -4 18 7 21 14 7 14 -6 0 -13 -4 -16 -10z"/>
<path d="M10008 5423 c7 -3 16 -2 19 1 4 3 -2 6 -13 5 -11 0 -14 -3 -6 -6z"/>
<path d="M9720 5120 c0 -5 5 -10 11 -10 5 0 7 5 4 10 -3 6 -8 10 -11 10 -2 0
-4 -4 -4 -10z"/>
<path d="M9880 5060 c-6 -11 -8 -20 -6 -20 3 0 10 9 16 20 6 11 8 20 6 20 -3
0 -10 -9 -16 -20z"/>
<path d="M6441 5054 c0 -11 3 -14 6 -6 3 7 2 16 -1 19 -3 4 -6 -2 -5 -13z"/>
<path d="M6106 4718 c3 -5 10 -6 15 -3 13 9 11 12 -6 12 -8 0 -12 -4 -9 -9z"/>
<path d="M6239 4643 c-13 -16 -12 -17 4 -4 9 7 17 15 17 17 0 8 -8 3 -21 -13z"/>
<path d="M5925 4500 c-3 -6 1 -7 9 -4 18 7 21 14 7 14 -6 0 -13 -4 -16 -10z"/>
<path d="M6826 4843 c-6 -14 -5 -15 5 -6 7 7 10 15 7 18 -3 3 -9 -2 -12 -12z"/>
<path d="M8381 4234 c0 -11 3 -14 6 -6 3 7 2 16 -1 19 -3 4 -6 -2 -5 -13z"/>
<path d="M7336 4828 c3 -5 10 -6 15 -3 13 9 11 12 -6 12 -8 0 -12 -4 -9 -9z"/>
<path d="M7289 4813 c-13 -16 -12 -17 4 -4 16 13 21 21 13 21 -2 0 -10 -8 -17
-17z"/>
<path d="M11255 2198 c-3 -7 -4 -272 -3 -588 l3 -575 380 -3 c347 -2 383 -1
412 15 43 24 173 151 184 181 5 13 9 191 9 396 l0 373 -29 39 c-50 68 -145
154 -181 164 -54 16 -769 13 -775 -2z"/>
<path d="M13145 2181 c-17 -10 -65 -51 -106 -92 -55 -54 -78 -83 -83 -108 -3
-18 -6 -121 -6 -227 l0 -194 510 0 510 0 0 210 c0 162 -3 217 -14 238 -20 37
-157 169 -190 182 -16 6 -141 10 -309 10 -257 0 -285 -2 -312 -19z"/>
<path d="M4430 1810 l0 -400 394 0 393 0 39 26 c60 40 155 135 170 171 18 41
20 363 3 396 -7 12 -41 55 -78 96 -103 116 -81 112 -535 111 l-386 -1 0 -399z"/>
<path d="M9755 2191 c-35 -15 -177 -154 -192 -188 -9 -24 -13 -88 -13 -238 l0
-205 510 0 510 0 0 204 c0 119 -4 216 -11 233 -13 36 -111 137 -168 174 l-45
29 -285 -1 c-158 0 -295 -4 -306 -8z"/>
<path d="M7990 345 c-5 -14 -14 -25 -20 -25 -13 0 -13 -41 0 -74 8 -22 16 -26
47 -26 52 0 63 10 69 62 8 63 -7 88 -52 88 -28 0 -36 -5 -44 -25z"/>
<path d="M8705 356 c-31 -23 -12 -46 39 -46 37 0 46 4 51 21 12 37 -50 54 -90
25z"/>
<path d="M10076 346 c-8 -34 2 -55 30 -62 58 -15 107 25 82 66 -10 15 -23 20
-59 20 -41 0 -48 -3 -53 -24z"/>
</g>
</svg>
